<?xml version="1.0" standalone="no"?>
<!DOCTYPE svg PUBLIC "-//W3C//DTD SVG 1.1//EN" "http://www.w3.org/Graphics/SVG/1.1/DTD/svg11.dtd" >
<svg xmlns="http://www.w3.org/2000/svg">
<metadata></metadata>
<defs>
<font id="c4_headlineregular" horiz-adv-x="1185" >
<font-face units-per-em="2048" ascent="1638" descent="-410" />
<missing-glyph horiz-adv-x="532" />
<glyph horiz-adv-x="2048" />
<glyph horiz-adv-x="2048" />
<glyph unicode="&#xd;" horiz-adv-x="2048" />
<glyph unicode=" "  horiz-adv-x="532" />
<glyph unicode="&#x09;" horiz-adv-x="532" />
<glyph unicode="&#xa0;" horiz-adv-x="532" />
<glyph unicode="!" horiz-adv-x="569" d="M164 129q0 59 41 100t100 41t100 -41t41 -100t-40.5 -100t-100.5 -41q-59 0 -100 41t-41 100zM184 1444h244l-20 -1075h-203z" />
<glyph unicode="&#x22;" horiz-adv-x="868" d="M82 838l76 618h254l-179 -618h-151zM477 838l76 618h254l-178 -618h-152z" />
<glyph unicode="#" horiz-adv-x="1464" d="M82 473v182h350v215h-350v183h350v391h182v-391h236v391h182v-391h350v-183h-350v-215h350v-182h-350v-473h-182v473h-236v-473h-182v473h-350zM614 655h236v215h-236v-215z" />
<glyph unicode="$" horiz-adv-x="1267" d="M125 184l172 158q31 -35 57.5 -58.5t56 -38t64.5 -21.5t82 -9l18 428l-167 49q-70 20 -119 47t-81 65t-46.5 90t-14.5 124v53q0 84 25 153.5t78 122t137 81t203 28.5h51l8 182h113l-8 -184q88 -4 156.5 -23.5t117.5 -60.5q20 -16 48 -52t57 -95l-191 -136q-16 31 -42 65 t-60 50q-35 16 -97 23l-18 -369l160 -45q139 -39 199.5 -116t60.5 -220v-104q0 -82 -25.5 -153t-80 -122t-139.5 -79.5t-204 -28.5h-37l-8 -162h-112l8 162q-76 2 -137.5 12t-111.5 33.5t-92 59.5t-81 91zM403 1077q0 -37 3.5 -62.5t14.5 -44t34.5 -31.5t64.5 -26l94 -24 l15 340h-23q-104 0 -153.5 -33t-49.5 -119zM670 215h10q109 0 159 45t50 137q0 80 -19.5 125t-97.5 68l-86 22z" />
<glyph unicode="%" horiz-adv-x="2041" d="M129 1016q0 90 10.5 170t44 139t99 95t174.5 36h59q109 0 174.5 -36t99 -96t44 -140t10.5 -170q0 -88 -10.5 -169t-44 -140.5t-99 -95.5t-174.5 -36h-59q-109 0 -174.5 36t-99 96.5t-44 141.5t-10.5 169zM342 1016q0 -86 7 -140.5t18 -78.5q12 -25 33.5 -37t58.5 -12h55 q37 0 58.5 12t33.5 37q10 25 17.5 78t7.5 139t-7.5 140t-17.5 79q-12 25 -33.5 37t-58.5 12h-55q-37 0 -58.5 -12.5t-33.5 -36.5q-10 -25 -17.5 -78t-7.5 -139zM645 -12l524 1468h224l-525 -1468h-223zM1194 430q0 90 10 170t44 139.5t99.5 95t174.5 35.5h59 q109 0 174.5 -35.5t99 -96t44 -140.5t10.5 -170q0 -88 -10.5 -169t-44 -140.5t-99 -95t-174.5 -35.5h-59q-109 0 -174.5 35.5t-99.5 96t-44 141.5t-10 169zM1407 430q0 -168 23 -219q25 -49 94 -49h55q37 0 58.5 12t33.5 37q10 25 17.5 78t7.5 139t-7.5 140.5t-17.5 78.5 q-12 25 -33.5 37t-58.5 12h-55q-70 0 -94 -49q-10 -25 -16.5 -78t-6.5 -139z" />
<glyph unicode="&#x26;" horiz-adv-x="1392" d="M98 334v170q0 53 16.5 104t49.5 84q18 18 43.5 35.5t54.5 28.5q-76 41 -102.5 99t-26.5 130v145q0 84 30 144.5t83 101.5t124.5 60.5t157.5 19.5h148q117 0 208 -16.5t150 -69.5q18 -16 45 -50t56 -93l-185 -131q-16 29 -41.5 63.5t-60.5 50.5t-75 22.5t-93 6.5h-115 q-117 0 -152.5 -45t-35.5 -125v-43q0 -90 39 -131q25 -27 67.5 -37t120.5 -10h756v-205h-197v-330q0 -66 -17.5 -125t-62.5 -103t-124.5 -70.5t-202.5 -26.5h-209q-125 0 -210 29.5t-138.5 77.5t-77 110.5t-23.5 128.5zM342 399q0 -43 10 -78.5t37 -61.5t73 -40t120 -14h141 q72 0 111.5 14t58.5 41q16 23 20 59q2 16 3.5 37t1.5 43v244h-326q-72 0 -116 -5t-73 -24q-35 -23 -48 -60.5t-13 -94.5v-60z" />
<glyph unicode="'" horiz-adv-x="473" d="M82 838l76 618h254l-179 -618h-151z" />
<glyph unicode="(" horiz-adv-x="903" d="M164 641q0 231 13 376.5t36 232.5t50.5 131t58.5 75q41 39 89 63.5t99 38t102.5 17.5t94.5 4h114v-221h-137q-72 0 -121 -25.5t-80 -89.5q-29 -59 -40 -210.5t-11 -391.5t11.5 -391.5t39.5 -210.5q31 -63 80 -89t121 -26h137v-221h-114q-43 0 -94.5 4t-102.5 17.5 t-99.5 38t-88.5 63.5q-31 31 -58.5 75t-50.5 131t-36 232.5t-13 376.5z" />
<glyph unicode=")" horiz-adv-x="903" d="M82 -76h137q72 0 121 25.5t80 89.5q29 59 40 210.5t11 391.5t-11 391.5t-40 210.5q-31 63 -80 89t-121 26h-137v221h115q43 0 94 -4t102 -17.5t100.5 -38t88.5 -63.5q31 -31 58.5 -75t50 -131t35.5 -232.5t13 -376.5t-13 -376.5t-35.5 -232.5t-50.5 -131t-58 -75 q-39 -39 -88.5 -63.5t-100.5 -38t-102 -17.5t-94 -4h-115v221z" />
<glyph unicode="*" horiz-adv-x="1011" d="M82 1083v121l324 -16l-226 205l86 86l205 -228l-16 326h120l-14 -326l203 228l86 -86l-225 -205l325 16v-121l-325 15l225 -205l-86 -86l-203 227l14 -325h-120l14 325l-203 -227l-86 86l226 205z" />
<glyph unicode="+" horiz-adv-x="1296" d="M102 590v221h437v434h221v-434h434v-221h-434v-436h-221v436h-437z" />
<glyph unicode="," horiz-adv-x="458" d="M45 -397l76 618h254l-178 -618h-152z" />
<glyph unicode="-" horiz-adv-x="628" d="M66 590v221h497v-221h-497z" />
<glyph unicode="." horiz-adv-x="425" d="M82 129q0 59 41 100t100 41t100.5 -41t41.5 -100t-41 -100t-101 -41q-59 0 -100 41t-41 100z" />
<glyph unicode="/" horiz-adv-x="692" d="M20 0l472 1577h231l-471 -1577h-232z" />
<glyph unicode="0" horiz-adv-x="1357" d="M137 723q0 150 12.5 253t34 172t49 112t58.5 73q39 39 87 63.5t98 38t100.5 17.5t93.5 4h18q43 0 93 -4t100.5 -17.5t98.5 -38t87 -63.5q31 -31 58.5 -73.5t49 -112.5t34 -173t12.5 -253t-12.5 -253t-34 -172t-49 -112t-58.5 -73q-39 -39 -87 -63.5t-98.5 -38 t-100.5 -17.5t-93 -4h-18q-43 0 -93.5 4t-100.5 17.5t-98 38t-87 63.5q-31 31 -58.5 73.5t-49 112.5t-34 173t-12.5 253zM403 723q0 -303 46 -399q53 -111 200 -111h60q150 0 200 111q45 96 45 397q0 303 -45 399q-51 111 -200 111h-60q-147 0 -200 -111q-45 -96 -46 -397z " />
<glyph unicode="1" horiz-adv-x="1032" d="M145 0v213h304v807q0 66 -4.5 106.5t-17.5 64t-37.5 32t-67.5 8.5h-150v213h190q80 0 143.5 -15.5t106.5 -52.5t66.5 -96t23.5 -150v-917h252v-213h-809z" />
<glyph unicode="2" horiz-adv-x="1265" d="M131 1223q29 59 56.5 95t48.5 52q61 53 140 69.5t195 16.5h164q115 0 193 -29.5t121 -74.5q84 -86 84 -297v-129q0 -88 -28 -165t-87 -126q-20 -16 -50 -27.5t-65 -18.5t-71.5 -10.5t-69.5 -5.5l-146 -8q-129 -6 -182 -84q-23 -35 -22.5 -85t0.5 -91v-92h704v-213h-958 v358q0 129 32.5 219.5t118.5 143.5q59 37 130 50t143 17q35 2 68.5 3.5t64.5 5.5q61 6 104 30q33 18 46.5 47t13.5 76v144q0 78 -52.5 107.5t-124.5 29.5h-133q-53 0 -82.5 -6t-62.5 -23q-35 -16 -60.5 -50t-41.5 -65z" />
<glyph unicode="3" horiz-adv-x="1282" d="M100 182l172 160q37 -43 68 -67.5t65.5 -39t74.5 -18.5t95 -4h74q72 0 117 13.5t70.5 37t35 58t9.5 77.5v60q0 51 -10.5 86t-39 55.5t-76.5 29.5t-126 9h-183v213h168q72 0 117 8t70.5 28.5t35 54.5t9.5 83v43q0 39 -7.5 69.5t-26.5 51t-55 31t-93 10.5h-80 q-106 0 -166 -29q-35 -16 -60.5 -50t-42.5 -65l-190 136q29 59 56.5 95t47.5 52q61 53 151.5 69.5t207.5 16.5h112q86 0 159 -20.5t126 -61.5t83 -102.5t30 -145.5v-141q0 -72 -25.5 -132t-95.5 -97q70 -29 113 -86.5t43 -134.5v-197q0 -68 -24 -130.5t-77 -111.5 t-139 -78.5t-211 -29.5h-98q-90 0 -161 7t-128 28.5t-104.5 59.5t-90.5 99z" />
<glyph unicode="4" horiz-adv-x="1333" d="M66 549v31q0 23 3 42t12 39.5t25.5 43t43.5 53.5l624 698h191v-817h237v-201h-237v-225h217v-213h-224h-253h-242v213h250v225h-463q-31 0 -63.5 3t-59.5 13.5t-44 33t-17 61.5zM313 639h400v455z" />
<glyph unicode="5" horiz-adv-x="1212" d="M154 303v172h249v-125q0 -78 41 -107.5t127 -29.5h103q53 0 80.5 9t46.5 32q31 37 30 92v242q0 86 -43 115.5t-120 29.5h-488v74v637h846v-213h-592v-285h238q100 0 173 -15.5t122 -56.5q59 -49 88.5 -123.5t29.5 -164.5v-199q0 -109 -19 -180.5t-62 -116.5t-113 -73.5 t-184 -28.5h-166q-186 0 -286.5 75.5t-100.5 239.5z" />
<glyph unicode="6" horiz-adv-x="1243" d="M150 324v653q0 117 24.5 207t83.5 155q49 55 134 86t192 31h65q117 0 207 -16.5t152 -69.5q20 -16 47.5 -52t56.5 -95l-190 -136q-16 31 -42 65t-61 50q-59 29 -166 29h-59q-125 0 -164 -78q-18 -37 -22.5 -85t-4.5 -99v-105h314q100 0 166.5 -12t115.5 -53 q121 -98 121 -281v-131q0 -211 -84 -297q-43 -45 -109.5 -73.5t-181.5 -28.5h-202q-129 0 -219.5 35.5t-135.5 111.5q-20 35 -29 86t-9 103zM403 352q0 -78 33 -108.5t119 -30.5h158q74 0 114.5 30.5t40.5 106.5v148q0 98 -59 133q-23 12 -48.5 16t-53.5 4h-304v-299z" />
<glyph unicode="7" horiz-adv-x="1042" d="M88 1231v213h905v-180q-63 -76 -125.5 -157t-117 -164t-98.5 -164t-74 -158q-29 -74 -46.5 -148t-25.5 -142.5t-10 -130t-2 -110.5v-90h-254v57q0 70 2 144.5t13 155.5t33.5 167t65.5 174q31 68 79 144t99.5 149.5t101.5 137t85 102.5h-631z" />
<glyph unicode="8" horiz-adv-x="1316" d="M154 317v197q0 78 44 145.5t111 96.5q-70 37 -95.5 97t-25.5 132v152q0 168 103.5 243.5t273.5 75.5h187q86 0 155.5 -17.5t118.5 -54t75.5 -95t26.5 -142.5v-162q0 -72 -25.5 -132t-94.5 -97q68 -29 111.5 -96.5t43.5 -145.5v-197q0 -68 -17.5 -127t-63.5 -104 t-124.5 -71.5t-203.5 -26.5h-191q-125 0 -203.5 26.5t-125 71.5t-63.5 104.5t-17 126.5zM406 356q0 -18 2 -34q4 -35 20 -58q18 -25 57 -38t111 -13h125q72 0 110.5 13.5t57.5 37.5q16 23 20 60q2 16 2 34.5v40.5v60q0 51 -7 85t-27.5 55.5t-57.5 30.5t-98 9h-123 q-59 0 -96 -8t-58.5 -28.5t-29.5 -55.5t-8 -86v-64v-41zM440 1026q0 -49 6.5 -83t22.5 -54.5t46 -28.5t75 -8h137q43 0 72.5 6t46 25.5t24 53.5t7.5 89v43q0 39 -4.5 68.5t-19.5 50t-48 32t-90 11.5h-113q-57 0 -90 -11.5t-48 -32t-19.5 -50t-4.5 -68.5v-43z" />
<glyph unicode="9" horiz-adv-x="1253" d="M133 911v146q0 211 84 297q43 45 109.5 73.5t181.5 28.5h203q129 0 219 -36t135 -111q20 -35 29.5 -86.5t9.5 -102.5v-655q0 -111 -24.5 -204t-82.5 -157q-49 -55 -135 -85.5t-192 -30.5h-74q-117 0 -204 16t-148 70q-20 16 -48 52t-57 95l191 135q16 -31 41.5 -64.5 t60.5 -49.5q59 -29 160 -29h67q125 0 164 78q18 37 22.5 85t4.5 99v84h-309q-100 0 -171 12.5t-120 53.5q-61 51 -89 123.5t-28 162.5zM385 926q0 -100 59 -135q23 -12 48.5 -15.5t54.5 -3.5h303v320q0 78 -33 108.5t-119 30.5h-157q-74 0 -115 -31t-41 -106v-168z" />
<glyph unicode=":" horiz-adv-x="425" d="M82 129q0 59 41 100t100 41t100.5 -41t41.5 -100t-41 -100t-101 -41q-59 0 -100 41t-41 100zM82 1018q0 59 41 100t100 41t100.5 -41t41.5 -100t-41 -100t-101 -41q-59 0 -100 40.5t-41 100.5z" />
<glyph unicode=";" horiz-adv-x="458" d="M45 -397l76 618h254l-178 -618h-152zM92 1018q0 59 41 100t100 41t100.5 -41t41.5 -100t-41 -100t-101 -41q-59 0 -100 40.5t-41 100.5z" />
<glyph unicode="&#x3c;" horiz-adv-x="1337" d="M123 625v213l1091 424v-261l-778 -270l778 -270v-262z" />
<glyph unicode="=" horiz-adv-x="1050" d="M102 369v221h656h190v-221h-188h-658zM102 811v221h656h190v-221h-188h-658z" />
<glyph unicode="&#x3e;" horiz-adv-x="1337" d="M123 199v262l778 270l-778 270v261l1091 -424v-213z" />
<glyph unicode="?" horiz-adv-x="806" d="M102 1223v221h127q57 0 133 -9.5t136 -33.5q98 -41 162.5 -125t64.5 -207q0 -66 -14.5 -126t-30.5 -95l-201 -479h-198l153 454q16 51 28.5 97.5t12.5 97.5q0 59 -28.5 103t-71.5 67q-39 18 -88 26.5t-97 8.5h-88zM231 129q0 59 41 100t101 41q59 0 100 -41t41 -100 t-41 -100t-100 -41t-100.5 41t-41.5 100z" />
<glyph unicode="@" horiz-adv-x="1683" d="M176 723q0 150 12.5 252t34 172t49 113t58.5 73q41 41 88 64.5t98 37t100.5 17.5t92.5 4h430q92 0 164.5 -22.5t121.5 -75.5q78 -88 78 -244v-371q0 -111 -12 -186.5t-52 -122.5t-114 -67.5t-197 -20.5h-124q-178 0 -288 89t-110 272q0 94 31 163.5t84 110.5 q72 57 166 71.5t235 14.5h138v49q0 78 -33 102.5t-121 24.5h-418q-72 0 -120 -37t-74 -90q-45 -92 -45 -393q0 -303 45 -395q51 -106 194 -107h762v-221h-741q-43 0 -92.5 2t-100.5 13.5t-98 34t-88 61.5q-31 31 -58.5 73.5t-49 113.5t-34 173t-12.5 252zM858 711 q0 -86 48 -123t128 -37h76q49 0 79 7t45 26.5t20.5 52.5t5.5 82v155h-211q-53 0 -97.5 -13t-68.5 -50q-25 -37 -25 -100z" />
<glyph unicode="A" horiz-adv-x="1273" d="M78 0q0 193 22.5 378t85.5 370q33 92 78 190t92 191.5t94.5 174t81.5 140.5h193q35 -59 82 -140t94 -174.5t92 -191.5t78 -190q63 -184 86 -369.5t23 -378.5h-252q0 104 -6.5 196.5t-14.5 176.5h-557q-8 -84 -14 -175.5t-6 -197.5h-252zM391 586h475q-16 72 -42.5 149.5 t-59.5 156.5t-67.5 154.5t-67.5 143.5q-33 -68 -68 -143.5t-67.5 -154.5t-59 -157t-43.5 -149z" />
<glyph unicode="B" horiz-adv-x="1292" d="M160 0v1444h487q102 0 187.5 -16.5t146.5 -59.5t95 -115.5t34 -183.5q0 -102 -36 -166.5t-103 -103.5q113 -37 170 -122t57 -241q0 -123 -37 -206t-104.5 -134t-161.5 -73.5t-209 -22.5h-526zM414 213h262q68 0 117 10t79.5 36t45 70.5t14.5 114.5q0 72 -20.5 114 t-57.5 62.5t-87 25.5t-110 5h-243v-438zM414 864h209q59 0 103 8.5t73.5 30t45 59.5t15.5 97q0 104 -59.5 138t-173.5 34h-213v-367z" />
<glyph unicode="C" horiz-adv-x="1277" d="M119 723q0 150 12 253t33.5 172t49.5 112t58 73q39 39 87.5 63.5t98.5 38t100 17.5t93 4h129q117 0 207 -16.5t152 -69.5q20 -16 47.5 -52t56.5 -95l-190 -136q-16 31 -42 65t-61 50q-59 29 -166 29h-153q-147 0 -201 -111q-45 -96 -45 -397q0 -303 45 -399 q53 -111 201 -111h180q84 0 136 17.5t100 74.5q8 8 12 14l164 -165q-37 -51 -77 -83t-88 -50.5t-107.5 -25.5t-133.5 -7h-166q-43 0 -93 4t-100 17.5t-98.5 38t-87.5 63.5q-31 31 -58.5 73.5t-49 112.5t-33.5 173t-12 253z" />
<glyph unicode="D" horiz-adv-x="1400" d="M160 0v211v1022v211h596q43 0 92 -2t98 -13.5t96.5 -33t85.5 -62.5q31 -31 58.5 -73.5t49 -111.5t34 -172t12.5 -253t-12.5 -253t-34 -173t-49 -113t-58.5 -73q-39 -39 -86 -61.5t-96 -34t-98 -13.5t-92 -2h-596zM414 213h125h235q143 0 197 109q23 49 34 150t11 251 q0 303 -45 399q-53 109 -197 109h-360v-1018z" />
<glyph unicode="E" horiz-adv-x="1134" d="M143 492v143v201v397v211h248h623v-213h-617v-387h512v-213h-512v-107q0 -25 2 -55.5t7.5 -61t14.5 -59.5t23 -47q18 -25 47 -42t62 -27.5t67.5 -14.5t65.5 -4h356v-213h-403q-51 0 -105.5 8t-105.5 24.5t-96 42t-76 60.5q-66 72 -89.5 159t-23.5 198z" />
<glyph unicode="F" horiz-adv-x="1099" d="M160 0v608v201v635h858v-213h-604v-387h471v-213h-471v-631h-254z" />
<glyph unicode="G" horiz-adv-x="1406" d="M119 723q0 150 12 253t33.5 172t49.5 112t58 73q39 39 87.5 63.5t98.5 38t100 17.5t93 4h152q117 0 207 -16.5t151 -69.5q20 -16 48 -52t57 -95l-191 -136q-16 31 -41.5 65t-60.5 50q-59 29 -166 29h-176q-147 0 -201 -111q-45 -96 -45 -397q0 -303 45 -399 q53 -111 201 -111h207q57 0 106 15.5t72 35.5v301h-271v213h523v-657q-37 -33 -86 -57.5t-105.5 -41t-116 -25.5t-116.5 -9h-193q-43 0 -93 4t-100 17.5t-98.5 38t-87.5 63.5q-31 31 -58.5 73.5t-49 112.5t-33.5 173t-12 253z" />
<glyph unicode="H" horiz-adv-x="1458" d="M164 0v1444h254v-600h622v600h254v-1444h-254v631h-622v-631h-254z" />
<glyph unicode="I" horiz-adv-x="913" d="M154 0v213h182v1018h-182v213h608v-213h-172v-1018h172v-213h-608z" />
<glyph unicode="J" horiz-adv-x="946" d="M82 0v213h160q31 0 65.5 4t68.5 14.5t62.5 27.5t46.5 42q14 18 23.5 47t14.5 59.5t7 61.5t2 55v707h-342v213h596v-952q0 -111 -23.5 -198t-88.5 -159q-31 -35 -76 -60.5t-96 -42t-106.5 -24.5t-106.5 -8h-207z" />
<glyph unicode="K" horiz-adv-x="1236" d="M164 0v1444h254v-613h127l370 613h254l-424 -699l232 -397q39 -68 72.5 -101.5t80.5 -33.5h76v-213h-141q-53 0 -91 10t-67.5 30.5t-53.5 51.5t-48 72l-279 467h-108v-631h-254z" />
<glyph unicode="L" horiz-adv-x="1007" d="M164 492v952h254v-918q0 -25 2 -55.5t7 -61t14.5 -59t23.5 -47.5q18 -25 47 -42t62.5 -28.5t68.5 -15.5t66 -4h221v-213h-268q-51 0 -106.5 8t-107 24.5t-96.5 42t-76 60.5q-66 72 -89 159t-23 198z" />
<glyph unicode="M" horiz-adv-x="1665" d="M174 0l23 1444h213l438 -832l428 832h201l14 -1444h-256l6 975l-321 -617h-172l-330 617l6 -975h-250z" />
<glyph unicode="N" horiz-adv-x="1466" d="M164 0v1444h207l702 -977v977h230v-1444h-181l-727 1018v-1018h-231z" />
<glyph unicode="O" horiz-adv-x="1423" d="M119 723q0 150 12 253t33.5 172t49.5 112t58 73q39 39 87.5 63.5t98.5 38t100 17.5t93 4h121q43 0 93 -4t100.5 -17.5t98.5 -38t87 -63.5q31 -31 58.5 -73.5t49 -112.5t34 -173t12.5 -253t-12.5 -253t-34 -172t-49 -112t-58.5 -73q-39 -39 -87 -63.5t-98.5 -38 t-100.5 -17.5t-93 -4h-121q-43 0 -93 4t-100 17.5t-98.5 38t-87.5 63.5q-31 31 -58.5 73.5t-49 112.5t-33.5 173t-12 253zM385 723q0 -303 45 -399q53 -111 201 -111h162q150 0 200 111q45 96 45 397q0 303 -45 399q-51 111 -200 111h-162q-147 0 -201 -111 q-45 -96 -45 -397z" />
<glyph unicode="P" horiz-adv-x="1241" d="M164 0v1444h518q135 0 223 -33t138.5 -96.5t71 -157.5t20.5 -217q0 -57 -6.5 -120.5t-26 -122t-55 -108.5t-95.5 -83q-68 -37 -153.5 -47t-167.5 -10h-213v-449h-254zM418 662h200q82 0 131.5 13t76 46t34.5 86t8 135v14q0 39 -2 82t-14 80t-36.5 64.5t-67.5 38.5 q-33 8 -67 9t-69 1h-194v-569z" />
<glyph unicode="Q" horiz-adv-x="1423" d="M119 723q0 150 12 253t33.5 172t49.5 112t58 73q39 39 87.5 63.5t98.5 38t100 17.5t93 4h121q43 0 93 -4t100.5 -17.5t98.5 -38t87 -63.5q31 -31 58.5 -73.5t49 -112.5t34 -173t12.5 -253t-12.5 -253t-34 -172t-49 -112t-58.5 -73q-35 -35 -78 -57.5t-88 -37t-91 -19.5 t-89 -7v-29q0 -41 15.5 -61.5t58.5 -20.5h266v-201h-307q-51 0 -109.5 12.5t-95.5 45.5q-41 39 -51.5 88t-10.5 88v82q-78 6 -157.5 30.5t-141.5 86.5q-31 31 -58.5 73.5t-49 112.5t-33.5 173t-12 253zM385 723q0 -301 45 -397q53 -113 201 -113h162q147 0 200 113 q45 96 45 395q0 303 -45 399q-51 111 -200 111h-162q-147 0 -201 -111q-45 -96 -45 -397z" />
<glyph unicode="R" horiz-adv-x="1310" d="M164 0v1444h530q135 0 223.5 -33t138.5 -96.5t70.5 -157.5t20.5 -217q0 -70 -8.5 -139.5t-33 -132t-71.5 -111.5t-125 -76l123 -198q20 -33 41 -50.5t60 -19.5h67v-213h-117q-39 0 -71.5 2t-62 12.5t-54.5 29.5t-47 56l-205 349h-225v-449h-254zM418 662h213q82 0 131 13 t75.5 46t35 87t8.5 136v10q0 39 -2 82t-14.5 81t-37 65.5t-67.5 38.5q-33 8 -67 9t-68 1h-207v-569z" />
<glyph unicode="S" horiz-adv-x="1325" d="M121 182l172 160q37 -43 67.5 -67.5t65.5 -39t75 -18.5t95 -4h141q109 0 159 46t50 138q0 78 -19.5 126t-97.5 67l-426 102q-141 35 -200.5 107.5t-59.5 218.5v53q0 84 25 153.5t78 122t137 81t203 28.5h121q117 0 207 -16.5t151 -69.5q20 -16 48 -52t56 -95l-190 -136 q-16 31 -42 65t-60 50q-59 29 -166 29h-109q-104 0 -153.5 -34t-49.5 -120q0 -37 3.5 -62.5t14.5 -44t34.5 -31.5t64.5 -24l428 -104q141 -35 199.5 -112.5t58.5 -223.5v-104q0 -82 -25.5 -153t-80 -122t-139.5 -79.5t-203 -28.5h-150q-90 0 -160.5 7t-128 28.5t-104.5 59.5 t-90 99z" />
<glyph unicode="T" d="M68 1231v213h1048v-213h-397v-1231h-254v1231h-397z" />
<glyph unicode="U" horiz-adv-x="1445" d="M160 471v973h254v-920q0 -96 16 -156.5t55 -95t102.5 -47t157.5 -12.5q31 0 66 4t67.5 14.5t61.5 27.5t47 42q14 18 22.5 47t13.5 59.5t7 61.5t2 55v920h254v-967q0 -94 -25.5 -191.5t-91.5 -168.5q-33 -35 -76.5 -59.5t-93 -40t-100.5 -22.5t-98 -7h-156q-47 0 -98 7 t-101.5 22.5t-94.5 40t-75 59.5q-66 72 -91 164t-25 190z" />
<glyph unicode="V" horiz-adv-x="1329" d="M113 1411v33h268q0 -193 15.5 -386.5t78.5 -375.5q37 -104 87 -204.5t100 -203.5h6q49 102 99 203t87 205q33 90 51.5 184.5t27.5 190.5t12 193.5t3 193.5h269v-33q0 -147 -13 -293q-8 -109 -22.5 -189.5t-38 -152t-56 -146.5t-81.5 -171q-59 -117 -119 -230.5 t-123 -228.5h-199q-63 115 -122.5 228.5t-118.5 230.5q-49 96 -82 171t-56.5 146.5t-37 152.5t-23.5 189q-12 145 -12 293z" />
<glyph unicode="W" horiz-adv-x="2035" d="M115 1411v33h266q0 -188 15.5 -385t78.5 -375q37 -102 80 -206.5t84 -198.5q47 102 83 190t73 190q27 76 44 165t27 167q14 113 16.5 225.5t2.5 227.5h266q0 -115 1.5 -227.5t16.5 -225.5q10 -78 27.5 -167t44.5 -165q37 -102 74 -190t84 -190q41 94 83 198.5t79 206.5 q63 178 78.5 374.5t15.5 385.5h266v-33q0 -147 -12 -293q-8 -92 -19.5 -169t-29 -148.5t-43 -143t-62.5 -153.5q-23 -51 -55.5 -119t-66.5 -137.5t-67.5 -134t-58.5 -113.5h-198q-35 63 -78 145t-84 171.5t-76 176.5t-53 160q-18 -74 -53 -160.5t-76 -176t-84 -171.5 t-78 -145h-199q-25 49 -58.5 113.5t-67 134t-66.5 137.5t-55 119q-37 82 -62.5 153.5t-43 143t-29 148.5t-19.5 169q-12 145 -12 293z" />
<glyph unicode="X" horiz-adv-x="1400" d="M123 0q0 47 2 86t10 86q10 61 28.5 106.5t44 84t58.5 74.5t76 77l213 207l-213 205q-45 43 -79 78.5t-58.5 73.5t-41 84t-26.5 110q-8 43 -10 86t-2 86h278q0 -80 13 -158q6 -49 21.5 -86t38 -69.5t50 -61.5t60.5 -63l116 -123l121 123q57 59 92 103t54.5 90t25.5 103.5 t6 141.5h279q0 -90 -10 -158.5t-35 -128t-66 -114t-104 -115.5l-213 -207l213 -207q35 -35 69.5 -70.5t63.5 -76.5q27 -37 41 -83t21.5 -94.5t9.5 -96.5t2 -93h-271q0 84 -6 141.5t-25.5 103.5t-54 91t-92.5 102l-121 123l-116 -123q-57 -59 -93 -105t-55.5 -93t-28 -103.5 t-8.5 -136.5h-278z" />
<glyph unicode="Y" horiz-adv-x="1329" d="M102 1444h265q0 -119 9 -202t30.5 -149.5t57.5 -126t91 -130.5l109 -144l108 144q55 72 91 131t57.5 125.5t31 149.5t9.5 202h264q0 -123 -8.5 -207t-31 -153.5t-63.5 -138t-110 -161.5l-221 -295v-489h-254v489l-222 295q-70 92 -110.5 161t-63 138.5t-31 153.5 t-8.5 207z" />
<glyph unicode="Z" horiz-adv-x="1241" d="M92 0v178l709 1053h-688v213h1024v-160l-719 -1071h731v-213h-1057z" />
<glyph unicode="[" horiz-adv-x="851" d="M268 -307v1884h543v-213h-289v-1458h289v-213h-543z" />
<glyph unicode="\" horiz-adv-x="643" d="M-31 1444h232l422 -1444h-232z" />
<glyph unicode="]" horiz-adv-x="851" d="M41 -94h289v1458h-289v213h543v-1884h-543v213z" />
<glyph unicode="^" horiz-adv-x="1032" d="M61 874l328 582h254l328 -582h-152l-303 410l-303 -410h-152z" />
<glyph unicode="_" horiz-adv-x="1167" d="M82 -223h1003v-207h-1003v207z" />
<glyph unicode="`" horiz-adv-x="530" d="M78 1577h254l100 -274h-170z" />
<glyph unicode="a" d="M88 348q0 94 31 163t84 112q90 74 216 92t267 18h117v2q0 78 -6 113t-21 57q-33 49 -129 49h-127q-82 0 -131 -16t-96 -72q-4 -6 -7 -8t-7 -10l-160 141q37 53 77 86t89 51.5t108.5 25.5t132.5 7h136q115 0 186.5 -28.5t114.5 -75.5t63.5 -118t20.5 -181v-371 q0 -111 -12.5 -186.5t-52.5 -122.5t-113.5 -67.5t-196.5 -20.5h-187q-178 0 -287.5 89t-109.5 271zM340 352q0 -86 48 -122.5t128 -36.5h137q49 0 79 7t45.5 26.5t20.5 52t5 81.5v181h-131q-55 0 -113.5 -3t-108 -21.5t-80 -56.5t-30.5 -108z" />
<glyph unicode="b" horiz-adv-x="1234" d="M139 573v1004h244v-455q35 20 88 28.5t100 8.5h138q70 0 151.5 -16.5t145.5 -79.5q25 -25 46 -59.5t37.5 -91t26.5 -138.5t10 -201t-10 -200.5t-26.5 -138t-38 -91t-45.5 -59.5q-63 -63 -145.5 -79.5t-151.5 -16.5h-156q-70 0 -150.5 16t-144.5 80q-25 25 -46.5 59.5 t-37.5 91t-25.5 138.5t-9.5 200zM383 573q0 -231 37 -309q18 -41 54 -56t95 -15h127q59 0 92 15t52 56q37 78 37 309q0 233 -37 310q-18 41 -51 56t-93 15h-157q-94 0 -129 -49q-8 -12 -13.5 -29.5t-8.5 -46t-4 -70.5t-1 -108v-78z" />
<glyph unicode="c" horiz-adv-x="1112" d="M109 573q0 119 10 201t26.5 138.5t38 91t45.5 59.5q31 31 70 50.5t81 29.5t82 13t75 3h122q100 0 171 -13t126 -52q37 -27 60.5 -55.5t42.5 -59.5l-168 -139q-12 20 -30.5 41.5t-37.5 33.5q-35 23 -70.5 31t-88.5 8h-113q-59 0 -98 -15t-58 -56q-37 -76 -37 -310 q0 -119 9.5 -193.5t27.5 -113.5t53 -56t101 -17h113q41 0 72.5 3t57 13t48 27.5t47.5 44.5q4 6 7 8t7 10l158 -141q-72 -104 -167 -137t-241 -33h-125q-70 0 -151.5 16t-145.5 80q-25 25 -46 59.5t-37.5 91t-26.5 138.5t-10 200z" />
<glyph unicode="d" horiz-adv-x="1234" d="M109 573q0 119 10 201t26.5 138.5t38 91t45.5 59.5q63 63 145.5 79.5t151.5 16.5h138q47 0 100 -8t88 -29v455h244v-1004q0 -119 -9.5 -200.5t-26 -138t-38 -91t-45.5 -59.5q-63 -63 -144 -79.5t-151 -16.5h-156q-70 0 -151.5 16t-145.5 80q-25 25 -46 59.5t-37.5 91 t-26.5 138.5t-10 200zM358 573q0 -231 37 -309q18 -41 51 -56t93 -15h127q59 0 95 15t54 56q37 78 37 309v78q0 66 -1 108t-4 70.5t-8 46t-14 29.5q-33 49 -129 49h-153q-59 0 -94 -15t-54 -56q-37 -76 -37 -310z" />
<glyph unicode="e" d="M109 573q0 117 10 200t26.5 139.5t38 91t45.5 59.5q31 31 71 50.5t81 29.5t82 13t76 3h139q209 0 307 -98t98 -297q0 -80 -8 -135.5t-34.5 -90t-78 -51t-137.5 -16.5h-465q6 -143 35 -205q18 -39 53 -56t101 -17h149q53 0 89 8t71 30q18 12 36.5 34t31.5 42l168 -139 q-12 -16 -27.5 -35.5t-28.5 -34.5q-63 -66 -141 -88t-203 -22h-166q-35 0 -73.5 3t-78.5 13t-78 29.5t-69 50.5q-25 25 -46 59.5t-37.5 91t-26.5 138.5t-10 200zM360 666h433q31 0 40 13t9 62v35q0 94 -41 137q-20 23 -53 32t-89 9h-112q-59 0 -96 -15t-56 -56 q-14 -29 -23.5 -85.5t-11.5 -131.5z" />
<glyph unicode="f" horiz-adv-x="782" d="M66 954v193h131v27q0 111 20.5 181t63.5 118q43 47 109.5 75.5t180.5 28.5h201v-205h-176q-94 0 -129 -49q-14 -20 -20.5 -52t-6.5 -95v-29h236v-193h-236v-954h-243v954h-131z" />
<glyph unicode="g" d="M88 -147q0 35 3 67.5t9 67.5h222q-4 -20 -6.5 -47t-2.5 -54q0 -41 13.5 -65.5t39 -37.5t61.5 -17.5t79 -4.5h221q72 0 118 19.5t46 97.5q0 72 -36 96.5t-107 24.5h-179q-150 0 -149 139v146q-59 4 -115.5 15t-101.5 50q-20 16 -40 44t-36 73t-26.5 107.5t-10.5 150.5 q0 115 20.5 197t67.5 135t126 77.5t198 24.5h618v-172h-133q25 -43 41 -107.5t16 -154.5q0 -115 -18 -199t-64.5 -138t-123 -79.5t-193.5 -25.5h-16v-62q0 -14 3 -21t19 -7h127q164 0 250 -74t86 -246q0 -82 -29.5 -139.5t-80 -94t-116 -53t-138.5 -16.5h-312 q-154 0 -252 70.5t-98 212.5zM332 721q0 -74 10 -120t29.5 -72.5t50.5 -37t72 -10.5h147q41 0 70.5 10.5t50 37t31 72.5t10.5 120t-9.5 120t-30 73.5t-53 38t-79.5 10.5h-125q-47 0 -80 -10.5t-54.5 -38t-30.5 -73.5t-9 -120z" />
<glyph unicode="h" horiz-adv-x="1243" d="M147 0v1577h244v-455q35 20 88 28.5t101 8.5h129q115 0 187.5 -28.5t115.5 -75.5t63.5 -118t20.5 -181v-756h-244v655q0 59 -1 100.5t-3 70t-7 47t-16 32.5q-18 29 -54 39t-85 10h-139q-94 0 -129 -49q-8 -12 -13.5 -29.5t-8.5 -46t-4 -70.5t-1 -108v-651h-244z" />
<glyph unicode="i" horiz-adv-x="837" d="M94 0v193h238v706q0 35 -10.5 45t-38.5 10h-144v193h258q53 0 88 -13.5t55.5 -38t27.5 -60.5t7 -83v-759h201v-193h-682zM274 1397q0 59 43 102t103 43q59 0 102 -43t43 -102t-43 -102.5t-102 -43.5t-102.5 43t-43.5 103z" />
<glyph unicode="j" horiz-adv-x="636" d="M10 -225h80q47 0 80 10t49 37q8 12 13.5 29.5t8.5 46t4 71.5t1 107v1071h243v-1172q0 -111 -20 -182.5t-63 -118.5t-110 -75.5t-181 -28.5h-105v205zM219 1397q0 59 43 102t103 43q59 0 102 -43t43 -102t-43 -102.5t-102 -43.5t-102.5 43t-43.5 103z" />
<glyph unicode="k" horiz-adv-x="1144" d="M164 0v1577h244v-858h129l260 428h241l-305 -512l150 -311q35 -70 68.5 -100.5t78.5 -30.5h53v-193h-116q-109 0 -164 41t-98 127l-175 344h-122v-512h-244z" />
<glyph unicode="l" horiz-adv-x="641" d="M152 315v1262h243v-1178v-52t4 -52q6 -59 30 -80.5t85 -21.5h41v-193h-88q-170 0 -242.5 73.5t-72.5 241.5z" />
<glyph unicode="m" horiz-adv-x="1935" d="M147 0v756q0 111 20.5 181.5t63.5 117.5t116 75.5t188 28.5h149q100 0 176 -16.5t115 -73.5q41 49 108.5 69.5t165.5 20.5h152q115 0 187.5 -28.5t115.5 -75.5t63.5 -118t20.5 -181v-756h-244v655q0 59 -1 100.5t-3 70t-7 47t-15 32.5q-18 29 -55.5 39t-86.5 10h-131 q-94 0 -129 -49q-8 -12 -13 -29.5t-8 -45t-4 -69.5t-1 -108v-653h-244v653v108t-2 69.5t-7.5 45t-13.5 29.5q-16 25 -52 37t-83 12h-131q-49 0 -85 -10t-54 -39q-8 -14 -14.5 -32.5t-8.5 -47t-3 -69.5t-1 -101v-655h-244z" />
<glyph unicode="n" horiz-adv-x="1243" d="M147 0v756q0 111 20.5 181.5t63.5 117.5t116 75.5t188 28.5h174q115 0 187.5 -28.5t115.5 -75.5t63.5 -118t20.5 -181v-756h-244v655q0 59 -1 100.5t-3 70t-7 47t-16 32.5q-18 29 -55 39t-86 10h-127q-49 0 -85 -10t-54 -39q-8 -14 -14.5 -32.5t-8.5 -47t-3 -69.5 t-1 -101v-655h-244z" />
<glyph unicode="o" horiz-adv-x="1210" d="M109 573q0 119 10 201t26.5 138.5t38 91t45.5 59.5q31 31 70 50.5t79 29.5t79 13t73 3h150q35 0 75 -3t79.5 -13t77.5 -29.5t69 -50.5q25 -25 46.5 -59.5t37.5 -91t26.5 -138.5t10.5 -201t-10.5 -200.5t-26.5 -138t-37.5 -91t-46.5 -59.5q-31 -31 -69 -50.5t-77.5 -29.5 t-79.5 -13t-75 -3h-150q-35 0 -73.5 3t-78.5 13t-79 29.5t-70 50.5q-25 25 -46 59.5t-37.5 91t-26.5 138.5t-10 200zM358 573q0 -236 37 -309q20 -41 56 -56t96 -15h117q59 0 95 15t56 56q37 73 37 309t-37 310q-20 41 -56 56t-95 15h-117q-59 0 -95 -15t-57 -56 q-37 -74 -37 -310z" />
<glyph unicode="p" horiz-adv-x="1234" d="M139 -430v1003q0 119 9.5 201t25.5 138.5t37.5 91t46.5 59.5q63 63 144 79.5t151 16.5h156q70 0 151.5 -16.5t145.5 -79.5q25 -25 46 -59.5t37.5 -91t26.5 -138.5t10 -201t-10 -200.5t-26.5 -138t-38 -91t-45.5 -59.5q-63 -63 -145.5 -79.5t-151.5 -16.5h-138 q-47 0 -100 8t-88 29v-455h-244zM383 496q0 -63 1 -106.5t4 -72t8 -46t14 -29.5q35 -49 129 -49h157q59 0 92 15t52 56q37 78 37 309q0 233 -37 310q-18 41 -51 56t-93 15h-127q-59 0 -94 -17t-55 -58q-37 -74 -37 -306v-77z" />
<glyph unicode="q" horiz-adv-x="1234" d="M109 573q0 119 10 201t26.5 138.5t38 91t45.5 59.5q63 63 145.5 79.5t151.5 16.5h156q70 0 150.5 -16.5t144.5 -79.5q25 -25 46 -59.5t37.5 -91t26 -138.5t9.5 -201v-1003h-244v455q-35 -20 -88 -28.5t-100 -8.5h-138q-70 0 -151.5 16t-145.5 80q-25 25 -46 59.5 t-37.5 91t-26.5 138.5t-10 200zM358 573q0 -231 37 -309q18 -41 51 -56t93 -15h157q96 0 129 49q8 12 13.5 29.5t8.5 46t4 71.5t1 107v77q0 233 -37 310q-18 41 -54 56t-95 15h-123q-59 0 -94 -16t-54 -57q-37 -76 -37 -308z" />
<glyph unicode="r" horiz-adv-x="866" d="M57 0v193h168v563q0 111 20.5 181.5t63.5 117.5t111.5 75.5t183.5 28.5h182v-205h-161q-94 0 -129 -49q-8 -12 -13.5 -29.5t-8.5 -45t-4 -69.5t-1 -108v-460h225v-193h-637z" />
<glyph unicode="s" horiz-adv-x="1116" d="M102 162l160 141q4 -8 7 -10t7 -8q47 -55 92.5 -73.5t127.5 -18.5h127q78 0 115.5 35.5t37.5 93.5q0 45 -12 84.5t-72 52.5l-348 73q-119 25 -169 87.5t-50 179.5v47q0 68 20.5 125t65.5 99t115.5 65.5t169.5 23.5h96q74 0 133 -7t108.5 -25.5t89.5 -51.5t76 -86 l-159 -141q-4 8 -7.5 10t-7.5 8q-25 29 -47 45.5t-49 26.5t-58.5 13t-72.5 3h-90q-78 0 -114 -24.5t-36 -79.5q0 -43 12.5 -75t71.5 -44l349 -74q119 -25 169 -91t50 -183v-82q0 -68 -21.5 -125t-68 -99t-117 -65.5t-168.5 -23.5h-133q-74 0 -132.5 7t-105.5 27.5t-86 54.5 t-76 85z" />
<glyph unicode="t" horiz-adv-x="823" d="M49 954v193h139v297h244v-297h250v-193h-250v-458q0 -63 1 -106.5t4 -72t8.5 -46t13.5 -29.5q35 -49 129 -49h143v-205h-168q-115 0 -181.5 28.5t-109.5 75.5t-63.5 118t-20.5 181v563h-139z" />
<glyph unicode="u" horiz-adv-x="1230" d="M147 391v756h244v-655q0 -59 1 -100.5t3 -70t8.5 -47t14.5 -32.5q18 -29 54 -39t85 -10h117q49 0 85 10t54 39q10 14 15.5 32.5t7.5 47t3 69.5t1 101v655h243v-756q0 -111 -20.5 -181.5t-63.5 -117.5t-115.5 -75.5t-187.5 -28.5h-161q-115 0 -188 28.5t-116 75.5 t-63.5 118t-20.5 181z" />
<glyph unicode="v" horiz-adv-x="1097" d="M74 1147h243q0 -51 2.5 -112.5t6.5 -119.5q8 -106 25.5 -188t45 -155.5t65.5 -148.5t87 -167q49 92 87 167t65.5 148.5t45 155.5t25.5 188q4 57 6 119t2 113h244q0 -70 -2 -127t-8 -119q-8 -100 -23.5 -174t-40 -139.5t-60.5 -133t-85 -157.5q-41 -74 -82 -147.5 t-88 -149.5h-172q-47 76 -88 149.5t-82 147.5q-49 90 -85 157.5t-60.5 133t-39 139.5t-24.5 174q-6 61 -8 118.5t-2 127.5z" />
<glyph unicode="w" horiz-adv-x="1619" d="M74 1147h243q0 -51 2.5 -112.5t6.5 -119.5q14 -188 63 -343.5t125 -313.5q74 154 118 309.5t58 345.5q4 51 5 108.5t1 100.5v25h228v-25q0 -43 1 -100t5 -109q14 -190 59 -346.5t117 -308.5q78 158 126 313.5t62 343.5q4 57 6.5 119t2.5 113h243q0 -70 -2 -127t-8 -119 q-8 -100 -21.5 -177t-35 -146.5t-53 -142.5t-78.5 -163l-144 -272h-176q-78 129 -133 255t-84 237q-27 -102 -84 -228.5t-135 -263.5h-176l-144 272q-47 90 -78.5 163t-53 142.5t-34 146.5t-22.5 177q-6 61 -8 118.5t-2 127.5z" />
<glyph unicode="x" horiz-adv-x="1101" d="M74 0q0 74 10 128t31.5 101t55.5 91.5t81 95.5l158 172l-131 143q-47 51 -81 95t-55.5 91.5t-32 101.5t-10.5 128h244q0 -66 6 -111t22.5 -80.5t44 -70.5t68.5 -80l66 -72l65 72q41 45 69 80t44 70.5t22.5 80.5t6.5 111h243q0 -74 -9.5 -128t-31.5 -101.5t-56 -91.5 t-81 -95l-131 -143l158 -172q47 -51 81 -95.5t55.5 -91.5t31.5 -101t10 -128h-244q0 66 -6 111t-22.5 80.5t-44 70.5t-68.5 80l-92 100l-92 -100q-41 -45 -69 -80t-44 -70.5t-22.5 -80.5t-6.5 -111h-243z" />
<glyph unicode="y" horiz-adv-x="1245" d="M152 403v744h243v-643q0 -59 1 -100.5t3 -70t8.5 -47t14.5 -32.5q18 -29 54 -39t85 -10h133q96 0 129 47q8 12 13.5 29.5t8.5 46t4 71.5t1 107v641h244v-1174q0 -111 -20.5 -181.5t-63.5 -117.5t-109.5 -75.5t-181.5 -28.5h-414v205h389q96 0 129 47q8 12 13.5 27.5 t8.5 40t4 60.5t1 87q-35 -20 -94.5 -28.5t-106.5 -8.5h-110q-115 0 -187.5 28.5t-115.5 75.5t-63.5 118t-20.5 181z" />
<glyph unicode="z" horiz-adv-x="999" d="M82 0v172l545 782h-525v193h811v-172l-548 -782h567v-193h-850z" />
<glyph unicode="{" horiz-adv-x="903" d="M164 641q0 231 13 376.5t36 232.5t50.5 131t58.5 75q41 39 89 63.5t99 38t102.5 17.5t94.5 4h114v-221h-137q-72 0 -121 -25.5t-80 -89.5q-29 -59 -40 -210.5t-11 -391.5t11.5 -391.5t39.5 -210.5q31 -63 80 -89t121 -26h137v-221h-114q-43 0 -94.5 4t-102.5 17.5 t-99.5 38t-88.5 63.5q-31 31 -58.5 75t-50.5 131t-36 232.5t-13 376.5z" />
<glyph unicode="|" horiz-adv-x="694" d="M225 -430v2007h244v-2007h-244z" />
<glyph unicode="}" horiz-adv-x="903" d="M82 -76h137q72 0 121 25.5t80 89.5q29 59 40 210.5t11 391.5t-11 391.5t-40 210.5q-31 63 -80 89t-121 26h-137v221h115q43 0 94 -4t102 -17.5t100.5 -38t88.5 -63.5q31 -31 58.5 -75t50 -131t35.5 -232.5t13 -376.5t-13 -376.5t-35.5 -232.5t-50.5 -131t-58 -75 q-39 -39 -88.5 -63.5t-100.5 -38t-102 -17.5t-94 -4h-115v221z" />
<glyph unicode="~" horiz-adv-x="503" d="M-113 1356q0 111 49.5 166t163.5 55q43 0 82 -11.5t73 -25.5t65.5 -25.5t58.5 -11.5q25 0 49.5 17.5t24.5 56.5h143q0 -111 -49 -166t-164 -55q-43 0 -82 11t-72.5 25.5t-64.5 26t-60 11.5q-25 0 -49 -17.5t-24 -56.5h-144z" />
<glyph unicode="&#xa1;" horiz-adv-x="569" d="M123 1018q0 59 41 100t100 41t100.5 -41t41.5 -100t-41 -100t-101 -41q-59 0 -100 40.5t-41 100.5zM141 -297l21 1075h203l20 -1075h-244z" />
<glyph unicode="&#xa2;" horiz-adv-x="1112" d="M109 573q0 119 10 201t26.5 138.5t38 91t45.5 59.5q31 31 70 50.5t81 29.5t82 13t75 3h45l8 191h121l-9 -191q84 -2 144.5 -16.5t109.5 -48.5q37 -27 60.5 -55.5t42.5 -59.5l-168 -139q-12 20 -30.5 41.5t-37.5 33.5q-29 20 -59.5 28.5t-71.5 10.5l-35 -761h5 q41 0 72.5 3t57 13t48 27.5t47.5 44.5q4 6 7 8t7 10l158 -141q-72 -104 -167 -137t-241 -33h-2l-8 -164h-121l8 164h-2q-70 0 -151.5 16t-145.5 80q-25 25 -46 59.5t-37.5 91t-26.5 138.5t-10 200zM358 573q0 -119 9.5 -193.5t27.5 -113.5q18 -37 50 -54t92 -19l34 761h-20 q-59 0 -98 -15t-58 -56q-37 -76 -37 -310z" />
<glyph unicode="&#xa3;" horiz-adv-x="1331" d="M143 639v213h174v274q0 84 30 145.5t83 102.5t125 61.5t158 20.5h71q117 0 207 -16.5t152 -69.5q20 -16 48 -52t56 -95l-190 -136q-16 31 -42 65t-61 50q-59 29 -166 29h-38q-57 0 -92 -10.5t-54.5 -31t-26 -51t-6.5 -69.5v-217h490v-213h-490v-203v-65.5t-2 -59.5 t-7 -51t-27 -47h673v-213h-1015v213q43 0 67.5 15.5t37.5 40t16 57t3 67.5v246h-174z" />
<glyph unicode="&#xa5;" horiz-adv-x="1329" d="M88 1444h270q0 -35 5.5 -92.5t9.5 -106.5q6 -61 20.5 -109.5t36 -93.5t50 -89t63.5 -93l121 -168l122 162q37 49 66 93t49.5 90t33.5 96.5t19 111.5q4 49 7.5 103.5t3.5 95.5h276q0 -43 -5 -102.5t-13 -112.5q-10 -82 -26.5 -139.5t-41.5 -104.5q-12 -23 -27.5 -45 t-31.5 -47t-37 -51.5t-43 -57.5q-8 -10 -17.5 -20t-21.5 -27h141v-153h-262q-16 -23 -32.5 -42.5t-32.5 -41.5v-60h288v-153h-288v-287h-252v287h-291v153h291v58q-16 23 -33 43t-33 43h-266v153h141l-37 45q-45 57 -78.5 104.5t-58 96.5t-41 107.5t-27.5 138.5 q-8 53 -13 107.5t-5 107.5z" />
<glyph unicode="&#xa6;" horiz-adv-x="995" d="M123 0v1262h749v-123h-624v-1014h139v-125h-264zM371 387v123h377v129h-377v373h501v-125h-374v-123h374v-377h-501z" />
<glyph unicode="&#xa7;" horiz-adv-x="1116" d="M102 -49l160 141q4 -8 7 -10t7 -8q47 -55 92.5 -73.5t127.5 -18.5h127q78 0 115.5 49t37.5 106q0 51 -4 83t-13 50.5t-22.5 26.5t-31.5 12l-361 74q-119 25 -169 87t-50 179v47q0 72 23.5 132.5t76.5 103.5q-53 35 -76.5 88t-23.5 135v109q0 68 20.5 125t65.5 99 t115.5 65.5t169.5 23.5h75q74 0 133.5 -7t108.5 -25.5t89 -51.5t77 -86l-160 -141q-4 8 -7 10t-7 8q-25 29 -47.5 45.5t-49 26.5t-58.5 13t-72 3h-70q-78 0 -114 -34.5t-36 -90.5q0 -45 3.5 -73.5t10.5 -46t21.5 -26.5t36.5 -14l361 -73q119 -25 169 -91.5t50 -183.5v-82 q0 -63 -18.5 -117.5t-59.5 -95.5q41 -35 59.5 -87t18.5 -124v-143q0 -68 -21.5 -125t-68 -99t-117 -65.5t-168.5 -23.5h-133q-74 0 -132.5 7t-105.5 27.5t-86 53.5t-76 86zM358 707q0 -43 11.5 -78t72.5 -47l244 -52q41 -10 65.5 6.5t24.5 79.5v62q0 43 -12 84t-72 53 l-231 49q-59 12 -81 -8t-22 -65v-84z" />
<glyph unicode="&#xa8;" horiz-adv-x="1003" d="M184 1452q0 53 35 89t88 36t89 -36t36 -89t-36 -89t-89 -36t-88 36t-35 89zM571 1452q0 53 36 89t89 36t88 -36t35 -89t-34.5 -89t-88.5 -36q-53 0 -89 36t-36 89z" />
<glyph unicode="&#xa9;" d="M154 1014q0 90 8 152.5t21.5 104.5t29.5 67.5t35 43.5q47 47 110.5 60.5t116.5 13.5h246q53 0 117.5 -13t111.5 -61q18 -18 34.5 -43.5t29 -67.5t20.5 -104.5t8 -152.5t-8 -152.5t-20.5 -104.5t-28.5 -67.5t-35 -44.5q-47 -47 -111.5 -60.5t-117.5 -13.5h-246 q-53 0 -116.5 13.5t-110.5 60.5q-18 18 -34.5 44t-30 68t-21.5 104.5t-8 152.5zM317 1014q0 -176 29 -238q31 -63 117 -63h270q86 0 117 63q29 62 29 238t-29 237q-31 63 -117 64h-270q-86 0 -117 -64q-29 -61 -29 -237zM422 1012q0 49 6 90t23.5 71.5t50.5 48t88 17.5h31 q35 0 62.5 -5t47.5 -22q6 -6 15.5 -17t19.5 -34l-66 -47q-16 29 -30.5 37t-46.5 8h-39q-41 0 -56 -29q-6 -14 -10 -42.5t-4 -75.5t4 -76t10 -43q16 -31 56 -31h45q29 0 43 6t30 29l58 -57q-25 -35 -53.5 -46.5t-75.5 -11.5h-41q-27 0 -61.5 7.5t-59.5 31.5 q-18 18 -32.5 59.5t-14.5 131.5z" />
<glyph unicode="&#xaa;" horiz-adv-x="614" d="M143 1329q0 55 39 84q31 23 75 29t91 6h37q0 6 -2 25.5t-6 23.5q-8 14 -43 14h-43q-29 0 -43.5 -5t-30.5 -21l-8 -8l-55 47q27 35 57.5 44t81.5 9h47q39 0 62.5 -9t39.5 -24q29 -27 29 -92v-111q0 -68 -22.5 -95t-106.5 -27h-63q-61 0 -98.5 26.5t-37.5 83.5zM231 1331 q0 -25 16.5 -36t43.5 -11h45q33 0 41 10.5t8 38.5v51h-43q-18 0 -38.5 -1t-36 -6t-26 -15t-10.5 -31z" />
<glyph unicode="&#xab;" horiz-adv-x="1171" d="M51 479v51q0 23 15.5 45.5t42.5 45.5l376 329l123 -143l-344 -301l344 -303l-123 -144l-376 330q-27 23 -42.5 45.5t-15.5 44.5zM532 479v51q0 23 15.5 45.5t42.5 45.5l377 329l123 -143l-345 -301l345 -303l-123 -144l-377 330q-27 23 -42.5 45.5t-15.5 44.5z" />
<glyph unicode="&#xac;" horiz-adv-x="937" d="M66 590v221h806v-442h-243v221h-563z" />
<glyph unicode="&#xad;" horiz-adv-x="628" d="M66 590v221h497v-221h-497z" />
<glyph unicode="&#xae;" d="M154 1014q0 90 8 152.5t21.5 104.5t29.5 67.5t35 43.5q47 47 110.5 60.5t116.5 13.5h246q53 0 117.5 -13t111.5 -61q18 -18 34.5 -43.5t29 -67.5t20.5 -104.5t8 -152.5t-8 -152.5t-20.5 -104.5t-28.5 -67.5t-35 -44.5q-47 -47 -111.5 -60.5t-117.5 -13.5h-246 q-53 0 -116.5 13.5t-110.5 60.5q-18 18 -34.5 44t-30 68t-21.5 104.5t-8 152.5zM317 1014q0 -176 29 -238q31 -63 117 -63h270q86 0 117 63q29 62 29 238t-29 237q-31 63 -117 64h-270q-86 0 -117 -64q-29 -61 -29 -237zM457 795v436h155q82 0 109 -39t27 -113 q0 -41 -11.5 -81t-56.5 -56l35 -57q6 -10 11 -14.5t15 -4.5h23v-71h-37q-23 0 -40 5t-32 27l-59 101h-59v-133h-80zM537 999h57q47 0 59.5 16.5t12.5 63.5v4q0 23 -5.5 45.5t-29.5 28.5q-10 2 -19.5 3t-19.5 1h-55v-162z" />
<glyph unicode="&#xaf;" horiz-adv-x="784" d="M86 1421v156h606v-156h-606z" />
<glyph unicode="&#xb0;" horiz-adv-x="663" d="M61 1192q0 74 20.5 124t55.5 80.5t80 45t96 14.5h37q51 0 96.5 -14.5t80 -45t55 -80.5t20.5 -124t-20.5 -124t-55 -81t-80 -45t-96.5 -14h-37q-51 0 -96 14t-80 45t-55.5 81t-20.5 124zM213 1192q0 -88 26.5 -120t79.5 -32h25q53 0 80 32t27 120t-27 119.5t-80 31.5h-25 q-53 0 -79.5 -31.5t-26.5 -119.5z" />
<glyph unicode="&#xb1;" horiz-adv-x="1296" d="M102 0v221h1092v-221h-1092zM102 782v222h437v436h221v-436h434v-222h-434v-434h-221v434h-437z" />
<glyph unicode="&#xb2;" horiz-adv-x="995" d="M123 0v1262h749v-123h-624v-1014h139v-125h-264zM371 387v123h377v129h-377v373h501v-125h-374v-123h374v-377h-501z" />
<glyph unicode="&#xb3;" horiz-adv-x="995" d="M123 0v1262h749v-123h-624v-1014h139v-125h-264zM371 387v123h377v129h-377v373h501v-125h-374v-123h374v-377h-501z" />
<glyph unicode="&#xb4;" horiz-adv-x="487" d="M78 1303l100 274h254l-184 -274h-170z" />
<glyph unicode="&#xb5;" horiz-adv-x="1251" d="M164 391v240v516h244v-516v-139q0 -59 1 -100.5t3 -70t8 -47t14 -32.5q18 -29 54 -39t85 -10h117q49 0 85 10t54 39q10 14 15.5 32.5t7.5 47t3 69.5t1 101v655h244v-756q0 -111 -20.5 -181.5t-63.5 -117.5t-116 -75.5t-187 -28.5h-162q-78 0 -143 16v-434h-244v821z" />
<glyph unicode="&#xb6;" horiz-adv-x="1323" d="M184 545v899h1035v-1874h-244v1653h-150v-1653h-243v977z" />
<glyph unicode="&#xb7;" horiz-adv-x="425" d="M82 731q0 59 41 100t100 41t100.5 -41t41.5 -100t-41 -100t-101 -41q-59 0 -100 41t-41 100z" />
<glyph unicode="&#xb8;" horiz-adv-x="503" d="M92 -254h94v-12q0 -14 6.5 -19.5t26.5 -5.5h49q14 0 22.5 4t8.5 21v67q0 29 -33 29h-166v33v168h95v-117h71q29 0 51.5 -4t38.5 -19q37 -35 37 -90v-57q0 -63 -26 -92q-29 -33 -91 -33h-65q-53 0 -86 24.5t-33 77.5v25z" />
<glyph unicode="&#xb9;" horiz-adv-x="995" d="M123 0v1262h749v-123h-624v-1014h139v-125h-264zM371 387v123h377v129h-377v373h501v-125h-374v-123h374v-377h-501z" />
<glyph unicode="&#xba;" horiz-adv-x="624" d="M143 1397q0 72 12.5 103.5t28.5 47.5q23 20 51.5 24.5t51.5 4.5h51q23 0 51.5 -4t50.5 -25q16 -16 28.5 -47.5t12.5 -103.5t-12 -102.5t-29 -47.5q-23 -20 -51.5 -24t-50.5 -4h-51q-23 0 -51.5 4t-51.5 24q-16 16 -28.5 47t-12.5 103zM231 1397q0 -70 13 -92 q10 -20 49 -21h39q39 0 49 21q12 22 12 92q0 74 -12 94q-10 20 -49 20h-39q-39 0 -49 -20q-12 -20 -13 -94z" />
<glyph unicode="&#xbb;" horiz-adv-x="1171" d="M82 203l344 303l-344 301l123 143l377 -329q27 -23 42 -45.5t15 -45.5v-51q0 -23 -15.5 -45t-41.5 -45l-377 -330zM563 203l344 303l-344 301l123 143l377 -329q27 -23 42 -45.5t15 -45.5v-51q0 -23 -15 -45t-42 -45l-377 -330z" />
<glyph unicode="&#xbc;" horiz-adv-x="995" d="M123 0v1262h749v-123h-624v-1014h139v-125h-264zM371 387v123h377v129h-377v373h501v-125h-374v-123h374v-377h-501z" />
<glyph unicode="&#xbd;" horiz-adv-x="995" d="M123 0v1262h749v-123h-624v-1014h139v-125h-264zM371 387v123h377v129h-377v373h501v-125h-374v-123h374v-377h-501z" />
<glyph unicode="&#xbe;" horiz-adv-x="995" d="M123 0v1262h749v-123h-624v-1014h139v-125h-264zM371 387v123h377v129h-377v373h501v-125h-374v-123h374v-377h-501z" />
<glyph unicode="&#xbf;" horiz-adv-x="806" d="M82 80q0 66 14.5 126t30.5 95l201 479h198l-153 -454q-16 -51 -28.5 -97.5t-12.5 -97.5q0 -59 28.5 -103t71.5 -67q39 -18 88 -26.5t96 -8.5h89v-221h-127q-57 0 -133 9.5t-136 33.5q-98 41 -162.5 125t-64.5 207zM293 1020q0 59 41 100t100 41t100 -41t41 -100 t-40.5 -100t-100.5 -41q-59 0 -100 41t-41 100z" />
<glyph unicode="&#xc0;" horiz-adv-x="1273" d="M78 0q0 193 22.5 378t85.5 370q33 92 78 190t92 191.5t94.5 174t81.5 140.5h193q35 -59 82 -140t94 -174.5t92 -191.5t78 -190q63 -184 86 -369.5t23 -378.5h-252q0 104 -6.5 196.5t-14.5 176.5h-557q-8 -84 -14 -175.5t-6 -197.5h-252zM360 1782h254l101 -275h-170z M391 586h475q-16 72 -42.5 149.5t-59.5 156.5t-67.5 154.5t-67.5 143.5q-33 -68 -68 -143.5t-67.5 -154.5t-59 -157t-43.5 -149z" />
<glyph unicode="&#xc1;" horiz-adv-x="1273" d="M78 0q0 193 22.5 378t85.5 370q33 92 78 190t92 191.5t94.5 174t81.5 140.5h193q35 -59 82 -140t94 -174.5t92 -191.5t78 -190q63 -184 86 -369.5t23 -378.5h-252q0 104 -6.5 196.5t-14.5 176.5h-557q-8 -84 -14 -175.5t-6 -197.5h-252zM391 586h475q-16 72 -42.5 149.5 t-59.5 156.5t-67.5 154.5t-67.5 143.5q-33 -68 -68 -143.5t-67.5 -154.5t-59 -157t-43.5 -149zM541 1505l100 275h254l-184 -275h-170z" />
<glyph unicode="&#xc2;" horiz-adv-x="1273" d="M78 0q0 193 22.5 378t85.5 370q33 92 78 190t92 191.5t94.5 174t81.5 140.5h193q35 -59 82 -140t94 -174.5t92 -191.5t78 -190q63 -184 86 -369.5t23 -378.5h-252q0 104 -6.5 196.5t-14.5 176.5h-557q-8 -84 -14 -175.5t-6 -197.5h-252zM328 1464v144l161 98 q45 27 64.5 37t44.5 10h37q25 0 44 -10t64 -37l162 -98v-144l-287 125h-4zM391 586h475q-16 72 -42.5 149.5t-59.5 156.5t-67.5 154.5t-67.5 143.5q-33 -68 -68 -143.5t-67.5 -154.5t-59 -157t-43.5 -149z" />
<glyph unicode="&#xc3;" horiz-adv-x="1273" d="M78 0q0 193 22.5 378t85.5 370q33 92 78 190t92 191.5t94.5 174t81.5 140.5h193q35 -59 82 -140t94 -174.5t92 -191.5t78 -190q63 -184 86 -369.5t23 -378.5h-252q0 104 -6.5 196.5t-14.5 176.5h-557q-8 -84 -14 -175.5t-6 -197.5h-252zM272 1499q0 111 49.5 166 t163.5 55q43 0 82 -11t73 -25.5t65.5 -25.5t58.5 -11q25 0 49.5 17t24.5 56h143q0 -111 -49 -166t-164 -55q-43 0 -82 11.5t-72.5 25.5t-64.5 25.5t-60 11.5q-25 0 -49 -17.5t-24 -56.5h-144zM391 586h475q-16 72 -42.5 149.5t-59.5 156.5t-67.5 154.5t-67.5 143.5 q-33 -68 -68 -143.5t-67.5 -154.5t-59 -157t-43.5 -149z" />
<glyph unicode="&#xc4;" horiz-adv-x="1273" d="M78 0q0 193 22.5 378t85.5 370q33 92 78 190t92 191.5t94.5 174t81.5 140.5h193q35 -59 82 -140t94 -174.5t92 -191.5t78 -190q63 -184 86 -369.5t23 -378.5h-252q0 104 -6.5 196.5t-14.5 176.5h-557q-8 -84 -14 -175.5t-6 -197.5h-252zM317 1595q0 53 35 89t88 36 t89 -36t36 -89t-35.5 -89t-89.5 -36q-53 0 -88 36t-35 89zM391 586h475q-16 72 -42.5 149.5t-59.5 156.5t-67.5 154.5t-67.5 143.5q-33 -68 -68 -143.5t-67.5 -154.5t-59 -157t-43.5 -149zM705 1595q0 53 35.5 89t88.5 36t88 -36t35 -89t-34.5 -89t-88.5 -36q-53 0 -88.5 36 t-35.5 89z" />
<glyph unicode="&#xc5;" horiz-adv-x="1273" d="M78 0q0 193 22.5 378t85.5 370q29 82 67 169t80 169.5t84 158.5t79 137q-27 20 -44.5 51t-17.5 74t16.5 75t43 51.5t62.5 28.5t73 9t72.5 -9t62.5 -28.5t43 -51.5t16 -75t-17.5 -73.5t-43.5 -51.5q37 -61 79 -137t84 -158.5t79.5 -170t66.5 -168.5q63 -184 86 -369.5 t23 -378.5h-252q0 104 -6.5 195.5t-14.5 175.5h-557q-8 -84 -14 -174.5t-6 -196.5h-252zM391 586h475q-16 72 -42.5 149.5t-59.5 156.5t-67.5 154.5t-67.5 143.5q-33 -68 -68 -143.5t-67.5 -154.5t-59 -157t-43.5 -149zM541 1507q0 -43 23.5 -67.5t64.5 -24.5t64.5 24.5 t23.5 67.5t-23.5 67.5t-64.5 24.5t-64.5 -24.5t-23.5 -67.5z" />
<glyph unicode="&#xc6;" horiz-adv-x="1892" d="M86 0q0 193 22.5 378t86.5 370q33 92 76.5 190t92 191.5t94.5 174t81 140.5h1233v-213h-613v-385h510v-215h-510v-105q0 -25 2 -55.5t7.5 -61t13.5 -59t22 -47.5q18 -25 47 -42t62 -28.5t67.5 -15.5t65.5 -4h354v-213h-401q-51 0 -105.5 8t-104.5 24.5t-95 42t-76 60.5 q-45 49 -69.5 107.5t-35.5 130.5h-555q-8 -84 -14 -175.5t-6 -197.5h-252zM397 586h508v49v201v395h-250q-6 -12 -12 -23.5t-12 -23.5q-33 -66 -67 -140.5t-65.5 -152.5t-58 -156t-43.5 -149z" />
<glyph unicode="&#xc7;" horiz-adv-x="1277" d="M119 723q0 150 12 253t33.5 172t49.5 112t58 73q39 39 87.5 63.5t98.5 38t100 17.5t93 4h129q117 0 207 -16.5t152 -69.5q20 -16 47.5 -52t56.5 -95l-190 -136q-16 31 -42 65t-61 50q-59 29 -166 29h-155q-74 0 -122 -25.5t-77 -85.5q-45 -96 -45 -397q0 -303 45 -399 q53 -111 201 -111h180q84 0 136 17.5t100 74.5q8 8 12 14l164 -165q-37 -51 -77 -83t-88 -50.5t-107.5 -25.5t-133.5 -7h-96v-74h72q29 0 51 -4t39 -19q37 -35 37 -90v-57q0 -63 -27 -92q-29 -33 -90 -33h-66q-53 0 -86 24.5t-33 77.5v25h95v-12q0 -14 6 -19.5t26 -5.5h50 q14 0 22 4t8 21v67q0 29 -32 29h-166v33v125q-43 0 -89 6t-93.5 19.5t-91.5 37t-81 60.5q-31 31 -58.5 73.5t-49 112.5t-33.5 173t-12 253z" />
<glyph unicode="&#xc8;" horiz-adv-x="1134" d="M143 492v143v201v397v211h248h623v-213h-617v-387h512v-213h-512v-107q0 -25 2 -55.5t7.5 -61t14.5 -59.5t23 -47q18 -25 47 -42t62 -27.5t67.5 -14.5t65.5 -4h356v-213h-403q-51 0 -105.5 8t-105.5 24.5t-96 42t-76 60.5q-66 72 -89.5 159t-23.5 198zM358 1802h254 l101 -274h-170z" />
<glyph unicode="&#xc9;" horiz-adv-x="1134" d="M143 492v143v201v397v211h248h623v-213h-617v-387h512v-213h-512v-107q0 -25 2 -55.5t7.5 -61t14.5 -59.5t23 -47q18 -25 47 -42t62 -27.5t67.5 -14.5t65.5 -4h356v-213h-403q-51 0 -105.5 8t-105.5 24.5t-96 42t-76 60.5q-66 72 -89.5 159t-23.5 198zM467 1507l100 275 h254l-184 -275h-170z" />
<glyph unicode="&#xca;" horiz-adv-x="1134" d="M143 492v143v201v397v211h248h623v-213h-617v-387h512v-213h-512v-107q0 -25 2 -55.5t7.5 -61t14.5 -59.5t23 -47q18 -25 47 -42t62 -27.5t67.5 -14.5t65.5 -4h356v-213h-403q-51 0 -105.5 8t-105.5 24.5t-96 42t-76 60.5q-66 72 -89.5 159t-23.5 198zM291 1505v144 l162 98q45 27 64.5 37t43.5 10h37q25 0 44.5 -10t64.5 -37l161 -98v-144l-286 125h-4z" />
<glyph unicode="&#xcb;" horiz-adv-x="1134" d="M143 492v143v201v397v211h248h623v-213h-617v-387h512v-213h-512v-107q0 -25 2 -55.5t7.5 -61t14.5 -59.5t23 -47q18 -25 47 -42t62 -27.5t67.5 -14.5t65.5 -4h356v-213h-403q-51 0 -105.5 8t-105.5 24.5t-96 42t-76 60.5q-66 72 -89.5 159t-23.5 198zM242 1636 q0 53 34.5 89t88.5 36q53 0 88.5 -36t35.5 -89t-35.5 -89t-88.5 -36t-88 36t-35 89zM629 1636q0 53 35.5 89t89.5 36q53 0 88 -36t35 -89t-35 -89t-88 -36t-89 36t-36 89z" />
<glyph unicode="&#xcc;" horiz-adv-x="913" d="M154 0v213h182v1018h-182v213h608v-213h-172v-1018h172v-213h-608zM201 1782h254l100 -275h-170z" />
<glyph unicode="&#xcd;" horiz-adv-x="913" d="M154 0v213h182v1018h-182v213h608v-213h-172v-1018h172v-213h-608zM344 1513l100 275h254l-184 -275h-170z" />
<glyph unicode="&#xce;" horiz-adv-x="913" d="M154 0v213h182v1018h-182v213h608v-213h-172v-1018h172v-213h-608zM168 1518v143l162 98q45 27 64.5 37t43.5 10h37q25 0 44.5 -10t64.5 -37l161 -98v-143l-286 124h-4z" />
<glyph unicode="&#xcf;" horiz-adv-x="913" d="M127 1653q0 53 35 89t88 36t89 -36t36 -89t-36 -89t-89 -36t-88 35.5t-35 89.5zM154 0v213h182v1018h-182v213h608v-213h-172v-1018h172v-213h-608zM514 1653q0 53 36 89t89 36t88 -36t35 -89t-35 -89t-88 -36t-89 35.5t-36 89.5z" />
<glyph unicode="&#xd0;" horiz-adv-x="995" d="M123 0v1262h749v-123h-624v-1014h139v-125h-264zM371 387v123h377v129h-377v373h501v-125h-374v-123h374v-377h-501z" />
<glyph unicode="&#xd1;" horiz-adv-x="1466" d="M164 0v1444h207l702 -977v977h230v-1444h-181l-727 1018v-1018h-231zM379 1526q0 111 49 166t164 55q43 0 82 -11.5t72.5 -25.5t65.5 -25.5t58 -11.5q25 0 49.5 17.5t24.5 56.5h143q0 -111 -49 -166t-164 -55q-43 0 -81.5 11t-72.5 25.5t-64.5 25.5t-59.5 11 q-25 0 -49.5 -17t-24.5 -56h-143z" />
<glyph unicode="&#xd2;" horiz-adv-x="1423" d="M119 723q0 150 12 253t33.5 172t49.5 112t58 73q39 39 87.5 63.5t98.5 38t100 17.5t93 4h121q43 0 93 -4t100.5 -17.5t98.5 -38t87 -63.5q31 -31 58.5 -73.5t49 -112.5t34 -173t12.5 -253t-12.5 -253t-34 -172t-49 -112t-58.5 -73q-39 -39 -87 -63.5t-98.5 -38 t-100.5 -17.5t-93 -4h-121q-43 0 -93 4t-100 17.5t-98.5 38t-87.5 63.5q-31 31 -58.5 73.5t-49 112.5t-33.5 173t-12 253zM385 723q0 -303 45 -399q53 -111 201 -111h162q150 0 200 111q45 96 45 397q0 303 -45 399q-51 111 -200 111h-162q-147 0 -201 -111 q-45 -96 -45 -397zM487 1806h254l101 -274h-170z" />
<glyph unicode="&#xd3;" horiz-adv-x="1423" d="M119 723q0 150 12 253t33.5 172t49.5 112t58 73q39 39 87.5 63.5t98.5 38t100 17.5t93 4h121q43 0 93 -4t100.5 -17.5t98.5 -38t87 -63.5q31 -31 58.5 -73.5t49 -112.5t34 -173t12.5 -253t-12.5 -253t-34 -172t-49 -112t-58.5 -73q-39 -39 -87 -63.5t-98.5 -38 t-100.5 -17.5t-93 -4h-121q-43 0 -93 4t-100 17.5t-98.5 38t-87.5 63.5q-31 31 -58.5 73.5t-49 112.5t-33.5 173t-12 253zM385 723q0 -303 45 -399q53 -111 201 -111h162q150 0 200 111q45 96 45 397q0 303 -45 399q-51 111 -200 111h-162q-147 0 -201 -111 q-45 -96 -45 -397zM569 1528l101 274h254l-185 -274h-170z" />
<glyph unicode="&#xd4;" horiz-adv-x="1423" d="M119 723q0 150 12 253t33.5 172t49.5 112t58 73q39 39 87.5 63.5t98.5 38t100 17.5t93 4h121q43 0 93 -4t100.5 -17.5t98.5 -38t87 -63.5q31 -31 58.5 -73.5t49 -112.5t34 -173t12.5 -253t-12.5 -253t-34 -172t-49 -112t-58.5 -73q-39 -39 -87 -63.5t-98.5 -38 t-100.5 -17.5t-93 -4h-121q-43 0 -93 4t-100 17.5t-98.5 38t-87.5 63.5q-31 31 -58.5 73.5t-49 112.5t-33.5 173t-12 253zM385 723q0 -303 45 -399q53 -111 201 -111h162q150 0 200 111q45 96 45 397q0 303 -45 399q-51 111 -200 111h-162q-147 0 -201 -111 q-45 -96 -45 -397zM420 1481v143l162 98q45 27 64.5 37t43.5 10h37q25 0 44.5 -10t64.5 -37l161 -98v-143l-286 125h-4z" />
<glyph unicode="&#xd5;" horiz-adv-x="1423" d="M119 723q0 150 12 253t33.5 172t49.5 112t58 73q39 39 87.5 63.5t98.5 38t100 17.5t93 4h121q43 0 93 -4t100.5 -17.5t98.5 -38t87 -63.5q31 -31 58.5 -73.5t49 -112.5t34 -173t12.5 -253t-12.5 -253t-34 -172t-49 -112t-58.5 -73q-39 -39 -87 -63.5t-98.5 -38 t-100.5 -17.5t-93 -4h-121q-43 0 -93 4t-100 17.5t-98.5 38t-87.5 63.5q-31 31 -58.5 73.5t-49 112.5t-33.5 173t-12 253zM334 1513q0 111 49 166.5t164 55.5q43 0 82 -11.5t72.5 -26t65.5 -25.5t58 -11q25 0 49.5 17.5t24.5 56.5h143q0 -111 -49 -166.5t-164 -55.5 q-43 0 -81.5 11.5t-72.5 26t-64.5 25.5t-59.5 11q-25 0 -49.5 -17.5t-24.5 -56.5h-143zM385 723q0 -303 45 -399q53 -111 201 -111h162q150 0 200 111q45 96 45 397q0 303 -45 399q-51 111 -200 111h-162q-147 0 -201 -111q-45 -96 -45 -397z" />
<glyph unicode="&#xd6;" horiz-adv-x="1423" d="M119 723q0 150 12 253t33.5 172t49.5 112t58 73q39 39 87.5 63.5t98.5 38t100 17.5t93 4h121q43 0 93 -4t100.5 -17.5t98.5 -38t87 -63.5q31 -31 58.5 -73.5t49 -112.5t34 -173t12.5 -253t-12.5 -253t-34 -172t-49 -112t-58.5 -73q-39 -39 -87 -63.5t-98.5 -38 t-100.5 -17.5t-93 -4h-121q-43 0 -93 4t-100 17.5t-98.5 38t-87.5 63.5q-31 31 -58.5 73.5t-49 112.5t-33.5 173t-12 253zM385 723q0 -303 45 -399q53 -111 201 -111h162q150 0 200 111q45 96 45 397q0 303 -45 399q-51 111 -200 111h-162q-147 0 -201 -111 q-45 -96 -45 -397zM391 1616q0 53 35 89t88 36t89 -36t36 -89t-36 -89t-89 -36t-88 36t-35 89zM778 1616q0 53 36 89t89 36t88 -36t35 -89t-35 -89t-88 -36t-89 36t-36 89z" />
<glyph unicode="&#xd7;" horiz-adv-x="995" d="M123 0v1262h749v-123h-624v-1014h139v-125h-264zM371 387v123h377v129h-377v373h501v-125h-374v-123h374v-377h-501z" />
<glyph unicode="&#xd8;" horiz-adv-x="1447" d="M131 723q0 150 12.5 253t34 172t49 112t58.5 73q39 39 87 63.5t98 38t100.5 17.5t93.5 4h120q57 0 125 -8t133 -35l74 133h154l-115 -205l8 -8q31 -29 58.5 -71.5t49 -113.5t34 -174t12.5 -253t-12.5 -253t-34 -172t-49 -112t-58.5 -73q-39 -39 -87 -63.5t-98 -38 t-100.5 -17.5t-93.5 -4h-120q-53 0 -118 8t-128 31l-76 -138h-154l115 205q-4 4 -9 8t-9 9q-31 31 -58.5 73.5t-49 112.5t-34 173t-12.5 253zM397 723q0 -274 41 -389l486 870q-27 14 -55.5 19.5t-63.5 5.5h-162q-150 0 -201 -109q-45 -96 -45 -397zM535 236q47 -20 108 -21 h162q150 0 201 109q45 96 45 397q0 127 -7.5 218t-25.5 153z" />
<glyph unicode="&#xd9;" horiz-adv-x="1445" d="M160 471v973h254v-920q0 -96 16 -156.5t55 -95t102.5 -47t157.5 -12.5q31 0 66 4t67.5 14.5t61.5 27.5t47 42q14 18 22.5 47t13.5 59.5t7 61.5t2 55v920h254v-967q0 -94 -25.5 -191.5t-91.5 -168.5q-33 -35 -76.5 -59.5t-93 -40t-100.5 -22.5t-98 -7h-156q-47 0 -98 7 t-101.5 22.5t-94.5 40t-75 59.5q-66 72 -91 164t-25 190zM498 1749h254l100 -274h-170z" />
<glyph unicode="&#xda;" horiz-adv-x="1445" d="M160 471v973h254v-920q0 -96 16 -156.5t55 -95t102.5 -47t157.5 -12.5q31 0 66 4t67.5 14.5t61.5 27.5t47 42q14 18 22.5 47t13.5 59.5t7 61.5t2 55v920h254v-967q0 -94 -25.5 -191.5t-91.5 -168.5q-33 -35 -76.5 -59.5t-93 -40t-100.5 -22.5t-98 -7h-156q-47 0 -98 7 t-101.5 22.5t-94.5 40t-75 59.5q-66 72 -91 164t-25 190zM596 1528l100 274h254l-184 -274h-170z" />
<glyph unicode="&#xdb;" horiz-adv-x="1445" d="M160 471v973h254v-920q0 -96 16 -156.5t55 -95t102.5 -47t157.5 -12.5q31 0 66 4t67.5 14.5t61.5 27.5t47 42q14 18 22.5 47t13.5 59.5t7 61.5t2 55v920h254v-967q0 -94 -25.5 -191.5t-91.5 -168.5q-33 -35 -76.5 -59.5t-93 -40t-100.5 -22.5t-98 -7h-156q-47 0 -98 7 t-101.5 22.5t-94.5 40t-75 59.5q-66 72 -91 164t-25 190zM436 1509v144l162 98q45 27 64.5 37t44.5 10h36q25 0 44.5 -10t64.5 -37l162 -98v-144l-287 125h-4z" />
<glyph unicode="&#xdc;" horiz-adv-x="1445" d="M160 471v973h254v-920q0 -96 16 -156.5t55 -95t102.5 -47t157.5 -12.5q31 0 66 4t67.5 14.5t61.5 27.5t47 42q14 18 22.5 47t13.5 59.5t7 61.5t2 55v920h254v-967q0 -94 -25.5 -191.5t-91.5 -168.5q-33 -35 -76.5 -59.5t-93 -40t-100.5 -22.5t-98 -7h-156q-47 0 -98 7 t-101.5 22.5t-94.5 40t-75 59.5q-66 72 -91 164t-25 190zM408 1616q0 53 34.5 89t87.5 36t89 -36t36 -89t-35.5 -89t-89.5 -36q-53 0 -87.5 36t-34.5 89zM795 1616q0 53 35.5 89t89.5 36q53 0 87.5 -36t34.5 -89t-34.5 -89t-87.5 -36t-89 36t-36 89z" />
<glyph unicode="&#xdd;" horiz-adv-x="995" d="M123 0v1262h749v-123h-624v-1014h139v-125h-264zM371 387v123h377v129h-377v373h501v-125h-374v-123h374v-377h-501z" />
<glyph unicode="&#xde;" horiz-adv-x="995" d="M123 0v1262h749v-123h-624v-1014h139v-125h-264zM371 387v123h377v129h-377v373h501v-125h-374v-123h374v-377h-501z" />
<glyph unicode="&#xdf;" horiz-adv-x="1361" d="M66 954v193h153v27q0 111 20.5 181t63.5 118q43 47 108.5 75.5t180.5 28.5h108q104 0 191.5 -18.5t150 -64.5t96 -124t33.5 -199q0 -111 -39.5 -183.5t-127.5 -125.5q135 -47 197.5 -139t62.5 -264q0 -133 -37 -223.5t-104.5 -144.5t-164 -77.5t-215.5 -23.5h-139v209 h127q76 0 130 11t89 41t51.5 82t16.5 134q0 88 -24.5 139t-65.5 78t-97.5 34t-117.5 7h-109v201h72q66 0 115 9t82.5 35.5t51 71.5t17.5 117q0 63 -17.5 104.5t-51 66t-83 33.5t-110.5 9h-64q-92 0 -127 -49q-14 -20 -20 -52t-6 -95v-29v-193v-1177h-244v1177h-153z" />
<glyph unicode="&#xe0;" d="M88 348q0 94 31 163t84 112q90 74 216 92t267 18h117v2q0 78 -6 113t-21 57q-33 49 -129 49h-127q-82 0 -131 -16t-96 -72q-4 -6 -7 -8t-7 -10l-160 141q37 53 77 86t89 51.5t108.5 25.5t132.5 7h136q115 0 186.5 -28.5t114.5 -75.5t63.5 -118t20.5 -181v-371 q0 -111 -12.5 -186.5t-52.5 -122.5t-113.5 -67.5t-196.5 -20.5h-187q-178 0 -287.5 89t-109.5 271zM340 352q0 -86 48 -122.5t128 -36.5h137q49 0 79 7t45.5 26.5t20.5 52t5 81.5v181h-131q-55 0 -113.5 -3t-108 -21.5t-80 -56.5t-30.5 -108zM362 1577h254l101 -274h-170z " />
<glyph unicode="&#xe1;" d="M88 348q0 94 31 163t84 112q90 74 216 92t267 18h117v2q0 78 -6 113t-21 57q-33 49 -129 49h-127q-82 0 -131 -16t-96 -72q-4 -6 -7 -8t-7 -10l-160 141q37 53 77 86t89 51.5t108.5 25.5t132.5 7h136q115 0 186.5 -28.5t114.5 -75.5t63.5 -118t20.5 -181v-371 q0 -111 -12.5 -186.5t-52.5 -122.5t-113.5 -67.5t-196.5 -20.5h-187q-178 0 -287.5 89t-109.5 271zM340 352q0 -86 48 -122.5t128 -36.5h137q49 0 79 7t45.5 26.5t20.5 52t5 81.5v181h-131q-55 0 -113.5 -3t-108 -21.5t-80 -56.5t-30.5 -108zM467 1303l100 274h254 l-184 -274h-170z" />
<glyph unicode="&#xe2;" d="M88 348q0 94 31 163t84 112q90 74 216 92t267 18h117v2q0 78 -6 113t-21 57q-33 49 -129 49h-127q-82 0 -131 -16t-96 -72q-4 -6 -7 -8t-7 -10l-160 141q37 53 77 86t89 51.5t108.5 25.5t132.5 7h136q115 0 186.5 -28.5t114.5 -75.5t63.5 -118t20.5 -181v-371 q0 -111 -12.5 -186.5t-52.5 -122.5t-113.5 -67.5t-196.5 -20.5h-187q-178 0 -287.5 89t-109.5 271zM322 1268v143l161 98q45 27 64.5 37t44.5 10h37q25 0 44 -10t64 -37l162 -98v-143l-287 125h-4zM340 352q0 -86 48 -122.5t128 -36.5h137q49 0 79 7t45.5 26.5t20.5 52 t5 81.5v181h-131q-55 0 -113.5 -3t-108 -21.5t-80 -56.5t-30.5 -108z" />
<glyph unicode="&#xe3;" d="M88 348q0 94 31 163t84 112q90 74 216 92t267 18h117v2q0 78 -6 113t-21 57q-33 49 -129 49h-127q-82 0 -131 -16t-96 -72q-4 -6 -7 -8t-7 -10l-160 141q37 53 77 86t89 51.5t108.5 25.5t132.5 7h136q115 0 186.5 -28.5t114.5 -75.5t63.5 -118t20.5 -181v-371 q0 -111 -12.5 -186.5t-52.5 -122.5t-113.5 -67.5t-196.5 -20.5h-187q-178 0 -287.5 89t-109.5 271zM231 1356q0 111 49.5 166t163.5 55q43 0 82 -11.5t73 -25.5t65.5 -25.5t58.5 -11.5q25 0 49.5 17.5t24.5 56.5h143q0 -111 -49 -166t-164 -55q-43 0 -82 11t-72.5 25.5 t-64.5 26t-59 11.5q-25 0 -49.5 -17.5t-24.5 -56.5h-144zM340 352q0 -86 48 -122.5t128 -36.5h137q49 0 79 7t45.5 26.5t20.5 52t5 81.5v181h-131q-55 0 -113.5 -3t-108 -21.5t-80 -56.5t-30.5 -108z" />
<glyph unicode="&#xe4;" d="M88 348q0 94 31 163t84 112q90 74 216 92t267 18h117v2q0 78 -6 113t-21 57q-33 49 -129 49h-127q-82 0 -131 -16t-96 -72q-4 -6 -7 -8t-7 -10l-160 141q37 53 77 86t89 51.5t108.5 25.5t132.5 7h136q115 0 186.5 -28.5t114.5 -75.5t63.5 -118t20.5 -181v-371 q0 -111 -12.5 -186.5t-52.5 -122.5t-113.5 -67.5t-196.5 -20.5h-187q-178 0 -287.5 89t-109.5 271zM274 1452q0 53 35 89t88 36t89 -36t36 -89t-35.5 -89t-89.5 -36q-53 0 -88 36t-35 89zM340 352q0 -86 48 -122.5t128 -36.5h137q49 0 79 7t45.5 26.5t20.5 52t5 81.5v181 h-131q-55 0 -113.5 -3t-108 -21.5t-80 -56.5t-30.5 -108zM662 1452q0 53 35.5 89t88.5 36t88 -36t35 -89t-34.5 -89t-88.5 -36q-53 0 -88.5 36t-35.5 89z" />
<glyph unicode="&#xe5;" d="M88 348q0 94 31 163t84 112q90 74 216 92t267 18h117v2q0 78 -6 113t-21 57q-33 49 -129 49h-127q-82 0 -131 -16t-96 -72q-4 -6 -7 -8t-7 -10l-160 141q37 53 77 86t89 51.5t108.5 25.5t132.5 7h136q115 0 186.5 -28.5t114.5 -75.5t63.5 -118t20.5 -181v-371 q0 -111 -12.5 -186.5t-52.5 -122.5t-113.5 -67.5t-196.5 -20.5h-187q-178 0 -287.5 89t-109.5 271zM340 352q0 -86 48 -122.5t128 -36.5h137q49 0 79 7t45.5 26.5t20.5 52t5 81.5v181h-131q-55 0 -113.5 -3t-108 -21.5t-80 -56.5t-30.5 -108zM416 1413q0 43 16.5 75t43 51.5 t62 28.5t72.5 9t73 -9t62.5 -28.5t43 -51.5t16.5 -75t-16.5 -74.5t-43 -51t-62.5 -29t-73 -9.5t-72.5 9.5t-62 29t-43 51t-16.5 74.5zM522 1413q0 -43 23.5 -67.5t64.5 -24.5t64.5 24.5t23.5 67.5t-23.5 67.5t-64.5 24.5t-64.5 -24.5t-23.5 -67.5z" />
<glyph unicode="&#xe6;" horiz-adv-x="1869" d="M90 348q0 94 31 163t84 112q90 74 216 92t267 18h117v2q0 78 -6 113t-21 57q-33 49 -129 49h-127q-82 0 -131 -16t-96 -72q-4 -6 -7 -8t-7 -10l-160 141q37 53 77 86t89 51.5t108.5 25.5t132.5 7h127q106 0 179 -30.5t114 -73.5q20 25 52 44t69 32.5t77 20.5t77 7h139 q209 0 307 -98t98 -297q0 -80 -8 -135.5t-34.5 -90t-78 -51t-137.5 -16.5h-465q6 -143 35 -205q18 -39 53 -56t101 -17h149q53 0 89 8t71 30q18 12 36.5 34t31.5 42l168 -139q-12 -16 -27.5 -35.5t-28.5 -34.5q-63 -66 -141 -88t-203 -22h-161q-33 0 -73 6t-78 20.5 t-71.5 37t-56.5 52.5q-41 -51 -105.5 -83.5t-162.5 -32.5h-183q-178 0 -287.5 89t-109.5 271zM342 352q0 -86 48 -122.5t128 -36.5h137q49 0 79 7t45.5 26.5t20.5 52t5 81.5v181h-131q-55 0 -113.5 -3t-108 -21.5t-80 -56.5t-30.5 -108zM1044 666h433q31 0 40 13t9 62v35 q0 94 -41 137q-20 23 -53 32t-89 9h-112q-59 0 -96 -15t-56 -56q-14 -29 -23 -85.5t-12 -131.5z" />
<glyph unicode="&#xe7;" horiz-adv-x="1112" d="M109 573q0 119 10 201t26.5 138.5t38 91t45.5 59.5q31 31 70 50.5t81 29.5t82 13t75 3h122q100 0 171 -13t126 -52q37 -27 60.5 -55.5t42.5 -59.5l-168 -139q-12 20 -30.5 41.5t-37.5 33.5q-35 23 -70.5 31t-88.5 8h-113q-59 0 -98 -15t-58 -56q-37 -76 -37 -310 q0 -119 9.5 -193.5t27.5 -113.5t53 -56t101 -17h113q41 0 72.5 3t57 13t48 27.5t47.5 44.5q4 6 7 8t7 10l158 -141q-72 -104 -167 -137t-241 -33h-63v-74h71q29 0 51.5 -4t39.5 -19q37 -35 36 -90v-57q0 -63 -26 -92q-29 -33 -90 -33h-66q-53 0 -86 24.5t-33 77.5v25h95v-12 q0 -14 6 -19.5t26 -5.5h50q14 0 22 4t8 21v67q0 29 -33 29h-165v33v125q-66 2 -136.5 20.5t-128.5 75.5q-25 25 -46 59.5t-37.5 91t-26.5 138.5t-10 200z" />
<glyph unicode="&#xe8;" d="M109 573q0 117 10 200t26.5 139.5t38 91t45.5 59.5q31 31 71 50.5t81 29.5t82 13t76 3h139q209 0 307 -98t98 -297q0 -80 -8 -135.5t-34.5 -90t-78 -51t-137.5 -16.5h-465q6 -143 35 -205q18 -39 53 -56t101 -17h149q53 0 89 8t71 30q18 12 36.5 34t31.5 42l168 -139 q-12 -16 -27.5 -35.5t-28.5 -34.5q-63 -66 -141 -88t-203 -22h-166q-35 0 -73.5 3t-78.5 13t-78 29.5t-69 50.5q-25 25 -46 59.5t-37.5 91t-26.5 138.5t-10 200zM360 666h433q31 0 40 13t9 62v35q0 94 -41 137q-20 23 -53 32t-89 9h-112q-59 0 -96 -15t-56 -56 q-14 -29 -23.5 -85.5t-11.5 -131.5zM385 1577h254l100 -274h-170z" />
<glyph unicode="&#xe9;" d="M109 573q0 117 10 200t26.5 139.5t38 91t45.5 59.5q31 31 71 50.5t81 29.5t82 13t76 3h139q209 0 307 -98t98 -297q0 -80 -8 -135.5t-34.5 -90t-78 -51t-137.5 -16.5h-465q6 -143 35 -205q18 -39 53 -56t101 -17h149q53 0 89 8t71 30q18 12 36.5 34t31.5 42l168 -139 q-12 -16 -27.5 -35.5t-28.5 -34.5q-63 -66 -141 -88t-203 -22h-166q-35 0 -73.5 3t-78.5 13t-78 29.5t-69 50.5q-25 25 -46 59.5t-37.5 91t-26.5 138.5t-10 200zM360 666h433q31 0 40 13t9 62v35q0 94 -41 137q-20 23 -53 32t-89 9h-112q-59 0 -96 -15t-56 -56 q-14 -29 -23.5 -85.5t-11.5 -131.5zM487 1303l101 274h254l-185 -274h-170z" />
<glyph unicode="&#xea;" d="M109 573q0 117 10 200t26.5 139.5t38 91t45.5 59.5q31 31 71 50.5t81 29.5t82 13t76 3h139q209 0 307 -98t98 -297q0 -80 -8 -135.5t-34.5 -90t-78 -51t-137.5 -16.5h-465q6 -143 35 -205q18 -39 53 -56t101 -17h149q53 0 89 8t71 30q18 12 36.5 34t31.5 42l168 -139 q-12 -16 -27.5 -35.5t-28.5 -34.5q-63 -66 -141 -88t-203 -22h-166q-35 0 -73.5 3t-78.5 13t-78 29.5t-69 50.5q-25 25 -46 59.5t-37.5 91t-26.5 138.5t-10 200zM297 1288v144l162 98q45 27 64.5 37t43.5 10h37q25 0 44.5 -10.5t64.5 -36.5l161 -98v-144l-286 125h-4z M360 666h433q31 0 40 13t9 62v35q0 94 -41 137q-20 23 -53 32t-89 9h-112q-59 0 -96 -15t-56 -56q-14 -29 -23.5 -85.5t-11.5 -131.5z" />
<glyph unicode="&#xeb;" d="M109 573q0 117 10 200t26.5 139.5t38 91t45.5 59.5q31 31 71 50.5t81 29.5t82 13t76 3h139q209 0 307 -98t98 -297q0 -80 -8 -135.5t-34.5 -90t-78 -51t-137.5 -16.5h-465q6 -143 35 -205q18 -39 53 -56t101 -17h149q53 0 89 8t71 30q18 12 36.5 34t31.5 42l168 -139 q-12 -16 -27.5 -35.5t-28.5 -34.5q-63 -66 -141 -88t-203 -22h-166q-35 0 -73.5 3t-78.5 13t-78 29.5t-69 50.5q-25 25 -46 59.5t-37.5 91t-26.5 138.5t-10 200zM285 1448q0 53 34.5 89t88.5 36q53 0 88.5 -36t35.5 -89t-35.5 -89t-88.5 -36t-88 36t-35 89zM360 666h433 q31 0 40 13t9 62v35q0 94 -41 137q-20 23 -53 32t-89 9h-112q-59 0 -96 -15t-56 -56q-14 -29 -23.5 -85.5t-11.5 -131.5zM672 1448q0 53 35.5 89t89.5 36q53 0 88 -36t35 -89t-35 -89t-88 -36t-89 36t-36 89z" />
<glyph unicode="&#xec;" horiz-adv-x="864" d="M98 0v193h258v706q0 35 -10 45t-39 10h-143v193h258q53 0 88 -13.5t55.5 -38t27.5 -60.5t7 -83v-759h203v-193h-705zM129 1577h254l100 -274h-170z" />
<glyph unicode="&#xed;" horiz-adv-x="864" d="M98 0v193h258v706q0 35 -10 45t-39 10h-143v193h258q53 0 88 -13.5t55.5 -38t27.5 -60.5t7 -83v-759h203v-193h-705zM242 1303l100 274h254l-184 -274h-170z" />
<glyph unicode="&#xee;" horiz-adv-x="864" d="M92 1288v144l162 98q45 27 64.5 37t43.5 10h37q25 0 44.5 -10.5t64.5 -36.5l162 -98v-144l-287 125h-4zM98 0v193h258v706q0 35 -10 45t-39 10h-143v193h258q53 0 88 -13.5t55.5 -38t27.5 -60.5t7 -83v-759h203v-193h-705z" />
<glyph unicode="&#xef;" horiz-adv-x="864" d="M78 1452q0 53 34.5 89t88.5 36q53 0 89 -36t36 -89t-36 -89t-89 -36t-88 36t-35 89zM98 0v193h258v706q0 35 -10 45t-39 10h-143v193h258q53 0 88 -13.5t55.5 -38t27.5 -60.5t7 -83v-759h203v-193h-705zM465 1452q0 53 36 89t89 36t88 -36t35 -89t-35 -89t-88 -36t-89 36 t-36 89z" />
<glyph unicode="&#xf0;" horiz-adv-x="995" d="M123 0v1262h749v-123h-624v-1014h139v-125h-264zM371 387v123h377v129h-377v373h501v-125h-374v-123h374v-377h-501z" />
<glyph unicode="&#xf1;" horiz-adv-x="1243" d="M147 0v756q0 111 20.5 181.5t63.5 117.5t116 75.5t188 28.5h174q115 0 187.5 -28.5t115.5 -75.5t63.5 -118t20.5 -181v-756h-244v655q0 59 -1 100.5t-3 70t-7 47t-16 32.5q-18 29 -55 39t-86 10h-127q-49 0 -85 -10t-54 -39q-8 -14 -14.5 -32.5t-8.5 -47t-3 -69.5 t-1 -101v-655h-244zM256 1356q0 111 49 166t164 55q43 0 82 -11.5t72.5 -25.5t65.5 -25.5t59 -11.5q25 0 49 17.5t24 56.5h144q0 -111 -49.5 -166t-163.5 -55q-43 0 -82 11t-73 25.5t-64.5 26t-59.5 11.5q-25 0 -49.5 -17.5t-24.5 -56.5h-143z" />
<glyph unicode="&#xf2;" horiz-adv-x="1210" d="M109 573q0 119 10 201t26.5 138.5t38 91t45.5 59.5q31 31 70 50.5t79 29.5t79 13t73 3h150q35 0 75 -3t79.5 -13t77.5 -29.5t69 -50.5q25 -25 46.5 -59.5t37.5 -91t26.5 -138.5t10.5 -201t-10.5 -200.5t-26.5 -138t-37.5 -91t-46.5 -59.5q-31 -31 -69 -50.5t-77.5 -29.5 t-79.5 -13t-75 -3h-150q-35 0 -73.5 3t-78.5 13t-79 29.5t-70 50.5q-25 25 -46 59.5t-37.5 91t-26.5 138.5t-10 200zM358 573q0 -236 37 -309q20 -41 56 -56t96 -15h117q59 0 95 15t56 56q37 73 37 309t-37 310q-20 41 -56 56t-95 15h-117q-59 0 -95 -15t-57 -56 q-37 -74 -37 -310zM362 1577h254l101 -274h-170z" />
<glyph unicode="&#xf3;" horiz-adv-x="1210" d="M109 573q0 119 10 201t26.5 138.5t38 91t45.5 59.5q31 31 70 50.5t79 29.5t79 13t73 3h150q35 0 75 -3t79.5 -13t77.5 -29.5t69 -50.5q25 -25 46.5 -59.5t37.5 -91t26.5 -138.5t10.5 -201t-10.5 -200.5t-26.5 -138t-37.5 -91t-46.5 -59.5q-31 -31 -69 -50.5t-77.5 -29.5 t-79.5 -13t-75 -3h-150q-35 0 -73.5 3t-78.5 13t-79 29.5t-70 50.5q-25 25 -46 59.5t-37.5 91t-26.5 138.5t-10 200zM358 573q0 -236 37 -309q20 -41 56 -56t96 -15h117q59 0 95 15t56 56q37 73 37 309t-37 310q-20 41 -56 56t-95 15h-117q-59 0 -95 -15t-57 -56 q-37 -74 -37 -310zM471 1303l100 274h254l-184 -274h-170z" />
<glyph unicode="&#xf4;" horiz-adv-x="1210" d="M109 573q0 119 10 201t26.5 138.5t38 91t45.5 59.5q31 31 70 50.5t79 29.5t79 13t73 3h150q35 0 75 -3t79.5 -13t77.5 -29.5t69 -50.5q25 -25 46.5 -59.5t37.5 -91t26.5 -138.5t10.5 -201t-10.5 -200.5t-26.5 -138t-37.5 -91t-46.5 -59.5q-31 -31 -69 -50.5t-77.5 -29.5 t-79.5 -13t-75 -3h-150q-35 0 -73.5 3t-78.5 13t-79 29.5t-70 50.5q-25 25 -46 59.5t-37.5 91t-26.5 138.5t-10 200zM311 1288v144l162 98q45 27 64.5 37t44.5 10h36q25 0 44.5 -10.5t64.5 -36.5l162 -98v-144l-287 125h-4zM358 573q0 -236 37 -309q20 -41 56 -56t96 -15 h117q59 0 95 15t56 56q37 73 37 309t-37 310q-20 41 -56 56t-95 15h-117q-59 0 -95 -15t-57 -56q-37 -74 -37 -310z" />
<glyph unicode="&#xf5;" horiz-adv-x="1210" d="M109 573q0 119 10 201t26.5 138.5t38 91t45.5 59.5q31 31 70 50.5t79 29.5t79 13t73 3h150q35 0 75 -3t79.5 -13t77.5 -29.5t69 -50.5q25 -25 46.5 -59.5t37.5 -91t26.5 -138.5t10.5 -201t-10.5 -200.5t-26.5 -138t-37.5 -91t-46.5 -59.5q-31 -31 -69 -50.5t-77.5 -29.5 t-79.5 -13t-75 -3h-150q-35 0 -73.5 3t-78.5 13t-79 29.5t-70 50.5q-25 25 -46 59.5t-37.5 91t-26.5 138.5t-10 200zM223 1356q0 111 49.5 166t163.5 55q43 0 82 -11.5t73 -25.5t65.5 -25.5t58.5 -11.5q25 0 49 17.5t24 56.5h144q0 -111 -49 -166t-164 -55q-43 0 -82 11 t-73 25.5t-64.5 26t-59.5 11.5q-25 0 -49 -17.5t-24 -56.5h-144zM358 573q0 -236 37 -309q20 -41 56 -56t96 -15h117q59 0 95 15t56 56q37 73 37 309t-37 310q-20 41 -56 56t-95 15h-117q-59 0 -95 -15t-57 -56q-37 -74 -37 -310z" />
<glyph unicode="&#xf6;" horiz-adv-x="1210" d="M109 573q0 119 10 201t26.5 138.5t38 91t45.5 59.5q31 31 70 50.5t79 29.5t79 13t73 3h150q35 0 75 -3t79.5 -13t77.5 -29.5t69 -50.5q25 -25 46.5 -59.5t37.5 -91t26.5 -138.5t10.5 -201t-10.5 -200.5t-26.5 -138t-37.5 -91t-46.5 -59.5q-31 -31 -69 -50.5t-77.5 -29.5 t-79.5 -13t-75 -3h-150q-35 0 -73.5 3t-78.5 13t-79 29.5t-70 50.5q-25 25 -46 59.5t-37.5 91t-26.5 138.5t-10 200zM270 1452q0 53 35 89t88 36t89 -36t36 -89t-36 -89t-89 -36t-88 36t-35 89zM358 573q0 -236 37 -309q20 -41 56 -56t96 -15h117q59 0 95 15t56 56 q37 73 37 309t-37 310q-20 41 -56 56t-95 15h-117q-59 0 -95 -15t-57 -56q-37 -74 -37 -310zM657 1452q0 53 36 89t89 36t88 -36t35 -89t-34.5 -89t-88.5 -36q-53 0 -89 36t-36 89z" />
<glyph unicode="&#xf7;" horiz-adv-x="1173" d="M102 590v221h969v-221h-969zM444 319q0 59 41 100.5t101 41.5q59 0 100 -41.5t41 -100.5t-41 -100t-100 -41t-100.5 41t-41.5 100zM444 1081q0 59 41 100.5t101 41.5q59 0 100 -41.5t41 -100.5t-41 -100t-100 -41t-100.5 41t-41.5 100z" />
<glyph unicode="&#xf8;" horiz-adv-x="1210" d="M109 573q0 119 10 201t26.5 138.5t38 91t45.5 59.5q31 31 70 50.5t79 29.5t79 13t73 3h150q35 0 71.5 -2t75.5 -12l58 117h162l-89 -179q8 -6 23 -20q25 -25 46.5 -59.5t37.5 -91t26.5 -138.5t10.5 -201t-10.5 -200.5t-26.5 -138t-37.5 -91t-46.5 -59.5 q-31 -31 -69 -50.5t-77.5 -29.5t-79.5 -13t-75 -3h-150q-25 0 -52 2t-56 6l-57 -119h-162l82 164q-14 10 -28.5 20.5t-27.5 22.5q-25 25 -46 59.5t-37.5 91t-26.5 138.5t-10 200zM358 573q0 -229 37 -307l336 682q-27 6 -67 6h-117q-59 0 -95 -15t-57 -56q-37 -74 -37 -310z M520 193h27h117q59 0 95 15t56 56q37 73 37 309q0 168 -18 254z" />
<glyph unicode="&#xf9;" horiz-adv-x="1230" d="M147 391v756h244v-655q0 -59 1 -100.5t3 -70t8.5 -47t14.5 -32.5q18 -29 54 -39t85 -10h117q49 0 85 10t54 39q10 14 15.5 32.5t7.5 47t3 69.5t1 101v655h243v-756q0 -111 -20.5 -181.5t-63.5 -117.5t-115.5 -75.5t-187.5 -28.5h-161q-115 0 -188 28.5t-116 75.5 t-63.5 118t-20.5 181zM352 1577h254l101 -274h-170z" />
<glyph unicode="&#xfa;" horiz-adv-x="1230" d="M147 391v756h244v-655q0 -59 1 -100.5t3 -70t8.5 -47t14.5 -32.5q18 -29 54 -39t85 -10h117q49 0 85 10t54 39q10 14 15.5 32.5t7.5 47t3 69.5t1 101v655h243v-756q0 -111 -20.5 -181.5t-63.5 -117.5t-115.5 -75.5t-187.5 -28.5h-161q-115 0 -188 28.5t-116 75.5 t-63.5 118t-20.5 181zM481 1303l101 274h254l-185 -274h-170z" />
<glyph unicode="&#xfb;" horiz-adv-x="1230" d="M147 391v756h244v-655q0 -59 1 -100.5t3 -70t8.5 -47t14.5 -32.5q18 -29 54 -39t85 -10h117q49 0 85 10t54 39q10 14 15.5 32.5t7.5 47t3 69.5t1 101v655h243v-756q0 -111 -20.5 -181.5t-63.5 -117.5t-115.5 -75.5t-187.5 -28.5h-161q-115 0 -188 28.5t-116 75.5 t-63.5 118t-20.5 181zM324 1288v144l161 98q45 27 64.5 37t44.5 10h37q25 0 44 -10.5t64 -36.5l162 -98v-144l-287 125h-4z" />
<glyph unicode="&#xfc;" horiz-adv-x="1230" d="M147 391v756h244v-655q0 -59 1 -100.5t3 -70t8.5 -47t14.5 -32.5q18 -29 54 -39t85 -10h117q49 0 85 10t54 39q10 14 15.5 32.5t7.5 47t3 69.5t1 101v655h243v-756q0 -111 -20.5 -181.5t-63.5 -117.5t-115.5 -75.5t-187.5 -28.5h-161q-115 0 -188 28.5t-116 75.5 t-63.5 118t-20.5 181zM297 1452q0 53 35 89t88 36t89 -36t36 -89t-36 -89t-89 -36t-88 36t-35 89zM684 1452q0 53 36 89t89 36t88 -36t35 -89t-35 -89t-88 -36t-89 36t-36 89z" />
<glyph unicode="&#xfd;" horiz-adv-x="995" d="M123 0v1262h749v-123h-624v-1014h139v-125h-264zM371 387v123h377v129h-377v373h501v-125h-374v-123h374v-377h-501z" />
<glyph unicode="&#xfe;" horiz-adv-x="995" d="M123 0v1262h749v-123h-624v-1014h139v-125h-264zM371 387v123h377v129h-377v373h501v-125h-374v-123h374v-377h-501z" />
<glyph unicode="&#xff;" horiz-adv-x="1245" d="M152 403v744h243v-643q0 -59 1 -100.5t3 -70t8.5 -47t14.5 -32.5q18 -29 54 -39t85 -10h133q96 0 129 47q8 12 13.5 29.5t8.5 46t4 71.5t1 107v641h244v-1174q0 -111 -20.5 -181.5t-63.5 -117.5t-109.5 -75.5t-181.5 -28.5h-414v205h389q96 0 129 47q8 12 13.5 27.5 t8.5 40t4 60.5t1 87q-35 -20 -94.5 -28.5t-106.5 -8.5h-110q-115 0 -187.5 28.5t-115.5 75.5t-63.5 118t-20.5 181zM299 1452q0 53 35 89t88 36t89 -36t36 -89t-36 -89t-89 -36t-88 36t-35 89zM686 1452q0 53 36 89t89 36t88 -36t35 -89t-35 -89t-88 -36t-89 36t-36 89z" />
<glyph unicode="&#x152;" horiz-adv-x="1984" d="M119 723q0 150 13 251t34.5 167.5t49.5 107.5t56 72q39 39 86.5 63.5t97.5 38t100 17.5t93 4h1215v-213h-613v-385h510v-215h-510v-105q0 -25 2 -55.5t7.5 -61t13.5 -59t22 -47.5q18 -25 47 -42t62 -28.5t67.5 -15.5t65.5 -4h354v-213h-401q-96 0 -197.5 28.5 t-169.5 90.5q-80 -68 -177 -99.5t-177 -31.5h-121q-43 0 -93 4t-100 17.5t-97.5 38t-86.5 63.5q-29 31 -56.5 73.5t-49 112.5t-34.5 173t-13 253zM385 723q0 -303 45 -399q53 -111 199 -111h164q70 0 129 34t90 85q-14 72 -15 160v143v201v395h-368q-145 0 -199 -111 q-45 -96 -45 -397z" />
<glyph unicode="&#x153;" horiz-adv-x="1916" d="M109 573q0 119 10 201t26.5 138.5t38 91t45.5 59.5q31 31 70 50.5t79 29.5t79 13t73 3h150q35 0 76 -6t81 -20.5t74.5 -38t59.5 -58.5q49 68 134 95.5t165 27.5h139q209 0 307 -98t99 -297q0 -80 -8.5 -135.5t-35 -90t-78 -51t-137.5 -16.5h-464q6 -143 34 -205 q18 -39 53 -56t101 -17h150q53 0 88.5 8t70.5 30q18 12 37 34t31 42l168 -139q-12 -16 -27.5 -35.5t-28.5 -34.5q-63 -66 -141 -88t-203 -22h-168q-84 0 -158.5 27.5t-129.5 93.5q-41 -57 -120 -89t-169 -32h-150q-35 0 -73.5 3t-78.5 13t-79 29.5t-70 50.5q-25 25 -46 59.5 t-37.5 91t-26.5 138.5t-10 200zM358 573q0 -236 37 -309q20 -41 56 -56t96 -15h117q59 0 95 15t56 56q37 73 37 309t-37 310q-20 41 -56 56t-95 15h-117q-59 0 -95 -15t-57 -56q-37 -74 -37 -310zM1092 666h432q31 0 40 13t9 62v35q0 94 -41 137q-20 23 -53 32t-88 9h-113 q-59 0 -96 -15t-56 -56q-14 -29 -23 -85.5t-11 -131.5z" />
<glyph unicode="&#x178;" horiz-adv-x="1329" d="M102 1444h265q0 -119 9 -202t30.5 -149.5t57.5 -126t91 -130.5l109 -144l108 144q55 72 91 131t57.5 125.5t31 149.5t9.5 202h264q0 -123 -8.5 -207t-31 -153.5t-63.5 -138t-110 -161.5l-221 -295v-489h-254v489l-222 295q-70 92 -110.5 161t-63 138.5t-31 153.5 t-8.5 207zM350 1647q0 53 35 89t88 36t89 -36t36 -89t-36 -89t-89 -36t-88 35.5t-35 89.5zM737 1647q0 53 36 89t89 36t88 -36t35 -89t-35 -89t-88 -36t-89 35.5t-36 89.5z" />
<glyph unicode="&#x2c6;" horiz-adv-x="827" d="M106 1288v144l162 98q45 27 64.5 37t44.5 10h37q25 0 44 -10.5t64 -36.5l162 -98v-144l-287 125h-4z" />
<glyph unicode="&#x2dc;" horiz-adv-x="503" d="M-113 1356q0 111 49.5 166t163.5 55q43 0 82 -11.5t73 -25.5t65.5 -25.5t58.5 -11.5q25 0 49.5 17.5t24.5 56.5h143q0 -111 -49 -166t-164 -55q-43 0 -82 11t-72.5 25.5t-64.5 26t-60 11.5q-25 0 -49 -17.5t-24 -56.5h-144z" />
<glyph unicode="&#x2000;" horiz-adv-x="903" />
<glyph unicode="&#x2001;" horiz-adv-x="1806" />
<glyph unicode="&#x2002;" horiz-adv-x="903" />
<glyph unicode="&#x2003;" horiz-adv-x="1806" />
<glyph unicode="&#x2004;" horiz-adv-x="602" />
<glyph unicode="&#x2005;" horiz-adv-x="451" />
<glyph unicode="&#x2006;" horiz-adv-x="301" />
<glyph unicode="&#x2007;" horiz-adv-x="301" />
<glyph unicode="&#x2008;" horiz-adv-x="225" />
<glyph unicode="&#x2009;" horiz-adv-x="361" />
<glyph unicode="&#x200a;" horiz-adv-x="100" />
<glyph unicode="&#x2010;" horiz-adv-x="628" d="M66 590v221h497v-221h-497z" />
<glyph unicode="&#x2011;" horiz-adv-x="628" d="M66 590v221h497v-221h-497z" />
<glyph unicode="&#x2012;" horiz-adv-x="628" d="M66 590v221h497v-221h-497z" />
<glyph unicode="&#x2013;" horiz-adv-x="958" d="M0 590v221h958v-221h-958z" />
<glyph unicode="&#x2014;" horiz-adv-x="1982" d="M0 590v221h1982v-221h-1982z" />
<glyph unicode="&#x2018;" horiz-adv-x="458" d="M84 1577h254l76 -619h-152z" />
<glyph unicode="&#x2019;" horiz-adv-x="458" d="M45 958l76 619h254l-178 -619h-152z" />
<glyph unicode="&#x201a;" horiz-adv-x="458" d="M45 -397l76 618h254l-178 -618h-152z" />
<glyph unicode="&#x201c;" horiz-adv-x="843" d="M84 1577h254l76 -619h-152zM469 1577h254l76 -619h-152z" />
<glyph unicode="&#x201d;" horiz-adv-x="843" d="M45 958l76 619h254l-178 -619h-152zM430 958l76 619h254l-178 -619h-152z" />
<glyph unicode="&#x201e;" horiz-adv-x="843" d="M45 -397l76 618h254l-178 -618h-152zM430 -397l76 618h254l-178 -618h-152z" />
<glyph unicode="&#x2022;" horiz-adv-x="718" d="M74 743q0 59 22.5 111.5t60.5 90.5t90 60.5t111 22.5t111.5 -22.5t91.5 -60.5t61.5 -90.5t22.5 -111.5t-22.5 -111t-61.5 -90t-91 -60.5t-112 -22.5q-59 0 -111 22.5t-90 60.5t-60.5 90t-22.5 111z" />
<glyph unicode="&#x2026;" horiz-adv-x="1437" d="M82 129q0 59 41 100t100 41t100.5 -41t41.5 -100t-41 -100t-101 -41q-59 0 -100 41t-41 100zM588 129q0 59 41 100t100 41t100 -41t41 -100t-41 -100t-100 -41t-100 41t-41 100zM1094 129q0 59 41 100t100 41t100 -41t41 -100t-41 -100t-100 -41t-100 41t-41 100z" />
<glyph unicode="&#x202f;" horiz-adv-x="361" />
<glyph unicode="&#x2039;" horiz-adv-x="690" d="M51 479v51q0 23 15.5 45.5t42.5 45.5l376 329l123 -143l-344 -301l344 -303l-123 -144l-376 330q-27 23 -42.5 45.5t-15.5 44.5z" />
<glyph unicode="&#x203a;" horiz-adv-x="690" d="M82 203l344 303l-344 301l123 143l377 -329q27 -23 42 -45.5t15 -45.5v-51q0 -23 -15.5 -45t-41.5 -45l-377 -330z" />
<glyph unicode="&#x205f;" horiz-adv-x="451" />
<glyph unicode="&#x20ac;" horiz-adv-x="1441" d="M96 489v146h221q0 23 -1 44t-1 44v55h-219v146h228q8 92 22 159.5t33.5 114.5t42 79t47.5 56q39 39 86 63.5t97 38t100.5 17.5t93.5 4h72q117 0 205.5 -16.5t150.5 -69.5q20 -16 48 -52t56 -95l-190 -136q-16 31 -42 65t-61 50q-33 16 -71.5 21.5t-91.5 5.5h-97 q-147 0 -198 -109q-29 -61 -41 -196h592v-146h-596v-55v-88h596v-146h-588q12 -113 37 -165q51 -109 198 -109h121q84 0 135.5 16.5t98.5 73.5q8 8 12 14l164 -165q-37 -51 -76 -83t-87 -50.5t-107.5 -25.5t-133.5 -7h-106q-43 0 -93.5 4t-100.5 17.5t-97 38t-86 63.5 q-23 23 -45.5 53.5t-40.5 74.5t-32.5 105.5t-24.5 144.5h-230z" />
<glyph unicode="&#x2122;" horiz-adv-x="1699" d="M63 1300v144h623v-144h-225v-702h-164v702h-234zM758 598l14 846h141l254 -459l248 459h133l8 -846h-170l5 526l-177 -315h-112l-180 315l4 -526h-168z" />
<glyph unicode="&#xe000;" horiz-adv-x="1146" d="M0 0v1147h1147v-1147h-1147z" />
<glyph unicode="&#xfb01;" horiz-adv-x="1511" d="M57 954v193h131v27q0 111 20.5 181t63.5 118q43 47 110 75.5t181 28.5h240v-205h-215q-94 0 -129 -49q-14 -20 -20.5 -52t-6.5 -95v-29h815v-954h203v-193h-725v193h279v761h-572v-954h-244v954h-131zM977 1397q0 59 43 102t102 43t102.5 -43t43.5 -102t-43 -102.5 t-103 -43.5q-59 0 -102 43t-43 103z" />
<glyph unicode="&#xfb02;" horiz-adv-x="1382" d="M57 954v193h131v27q0 111 20.5 181t63.5 118q43 47 110 75.5t181 28.5h574v-1178v-52t4 -52q6 -59 29.5 -80.5t84.5 -21.5h41v-193h-88q-170 0 -242.5 73.5t-72.5 241.5v1057h-305q-94 0 -129 -49q-14 -20 -20.5 -52t-6.5 -95v-29h240v-193h-240v-954h-244v954h-131z" />
</font>
</defs>
</svg>
