<?xml version="1.0" encoding="utf-8"?>
<!-- Generator: Adobe Illustrator 19.1.0, SVG Export Plug-In . SVG Version: 6.00 Build 0)  -->
<svg version="1.1" id="Layer_1" xmlns="http://www.w3.org/2000/svg" xmlns:xlink="http://www.w3.org/1999/xlink" x="0px" y="0px"
	 width="20px" height="17px" viewBox="-469 272 20 17" style="enable-background:new -469 272 20 17;" xml:space="preserve">
<style type="text/css">
	.st0{fill:#048482;}
</style>
<path class="st0" d="M-462.7,289c-2.3,0-4.5-0.7-6.3-1.9c0.3,0,0.6,0.1,1,0.1c1.9,0,3.7-0.7,5.1-1.8c-1.8,0-3.3-1.3-3.8-3
	c0.3,0,0.5,0.1,0.8,0.1c0.4,0,0.7-0.1,1.1-0.2c-2-0.5-3.4-2.2-3.4-4.3c0,0,0,0,0-0.1c0.6,0.4,1.2,0.6,1.9,0.6
	c-1.1-0.8-1.9-2.1-1.9-3.6c0-0.8,0.2-1.5,0.6-2.2c2,2.6,5,4.3,8.5,4.5c-0.1-0.2-0.2-0.6-0.2-0.9c0-2.4,1.8-4.3,4.1-4.3
	c1.2,0,2.2,0.5,3,1.4c0.9-0.2,1.8-0.5,2.6-1c-0.3,1-1,1.8-1.8,2.4c0.9-0.2,1.7-0.4,2.4-0.8c-0.6,0.9-1.2,1.6-2,2.2
	c0,0.2,0,0.4,0,0.6C-451,282.5-455.2,289-462.7,289"/>
</svg>
