<?xml version="1.0" encoding="utf-8"?>
<!-- Generator: Adobe Illustrator 19.1.0, SVG Export Plug-In . SVG Version: 6.00 Build 0)  -->
<svg version="1.1" id="Layer_1" xmlns="http://www.w3.org/2000/svg" xmlns:xlink="http://www.w3.org/1999/xlink" x="0px" y="0px"
	 width="21px" height="20px" viewBox="0 0 21 20" enable-background="new 0 0 21 20" xml:space="preserve">
<g>
	<g>
		<path fill="#048482" d="M0.3,20h4.4V6.6H0.3V20z M15.8,6.3c-2.1,0-3.5,1.1-4.1,2.2h-0.1V6.6H7.4V20h4.3v-6.6
			c0-1.7,0.3-3.4,2.6-3.4c2.2,0,2.3,2,2.3,3.5V20H21v-7.3C21,9.1,20.2,6.3,15.8,6.3z M2.5,0C1.1,0,0,1.1,0,2.4
			c0,1.3,1.1,2.4,2.5,2.4C3.9,4.8,5,3.7,5,2.4C5,1.1,3.9,0,2.5,0z"/>
	</g>
</g>
</svg>
