<?xml version="1.0" encoding="utf-8"?>
<!-- Generator: Adobe Illustrator 19.1.0, SVG Export Plug-In . SVG Version: 6.00 Build 0)  -->
<svg version="1.1" id="Layer_1" xmlns="http://www.w3.org/2000/svg" xmlns:xlink="http://www.w3.org/1999/xlink" x="0px" y="0px"
	 width="20px" height="17px" viewBox="0 0 20 17" enable-background="new 0 0 20 17" xml:space="preserve">
<path fill="#3B393D" d="M6.3,17C4,17,1.8,16.3,0,15.1c0.3,0,0.6,0.1,1,0.1c1.9,0,3.7-0.7,5.1-1.8c-1.8,0-3.3-1.3-3.8-3
	c0.3,0,0.5,0.1,0.8,0.1c0.4,0,0.7-0.1,1.1-0.2C2.2,9.8,0.8,8.1,0.8,6c0,0,0,0,0-0.1C1.4,6.3,2,6.5,2.7,6.5C1.6,5.7,0.8,4.4,0.8,2.9
	c0-0.8,0.2-1.5,0.6-2.2c2,2.6,5,4.3,8.5,4.5C9.8,5,9.7,4.6,9.7,4.3c0-2.4,1.8-4.3,4.1-4.3c1.2,0,2.2,0.5,3,1.4
	c0.9-0.2,1.8-0.5,2.6-1c-0.3,1-1,1.8-1.8,2.4C18.5,2.6,19.3,2.4,20,2c-0.6,0.9-1.2,1.6-2,2.2c0,0.2,0,0.4,0,0.6
	C18,10.5,13.8,17,6.3,17"/>
</svg>
